<svg preserveAspectRatio="none" width="465" height="290" viewBox="0 0 465 290" fill="none" xmlns="http://www.w3.org/2000/svg">
<path opacity="0.5" d="M800.245 -124.339C969.452 -149.448 987.419 -28.0601 976.138 35.2972C962.852 109.91 901.635 137.284 862.757 142.364C767.123 147.26 751.862 169.326 739.415 191.165C673.967 301.813 546.824 274.291 491.433 246.699C361.112 181.781 281.314 218.415 211.732 256.58C85.5454 331.177 26.1163 262.006 12.1749 218.095C-42.5534 45.7179 106.042 2.73155 166.93 31.4918C229.063 60.8408 273.153 57.0396 290.168 42.4994C357.203 -14.7845 455.895 21.5657 496.862 46.9013C552.463 76.3167 633.492 1.90545 667.055 -38.9772C711.857 -96.1523 774.515 -119.708 800.245 -124.339Z" fill="url(#paint0_linear_4_1426)"/>
<defs>
<linearGradient id="paint0_linear_4_1426" x1="308.863" y1="225.102" x2="867.79" y2="-409.783" gradientUnits="userSpaceOnUse">
<stop stop-color="#5AD3C0" stop-opacity="0.07"/>
<stop offset="0.395805" stop-color="#80BAFF" stop-opacity="0.56"/>
<stop offset="0.676836" stop-color="#5E6EEE" stop-opacity="0.968669"/>
<stop offset="0.993208" stop-color="#565CEA" stop-opacity="0.31"/>
</linearGradient>
</defs>
</svg>
