<svg width="160" height="130" viewBox="0 0 160 130" fill="none" xmlns="http://www.w3.org/2000/svg">
<rect y="0.00952148" width="160" height="120" rx="10" fill="#DAF5FB"/>
<path d="M18.094 20.6375H15.056V19.0975H22.896V20.6375H19.858V29.0095H18.094V20.6375ZM28.137 28.1555H28.095C27.927 28.4542 27.6564 28.7015 27.283 28.8975C26.9097 29.0842 26.485 29.1775 26.009 29.1775C25.7384 29.1775 25.4537 29.1402 25.155 29.0655C24.8657 29.0002 24.595 28.8882 24.343 28.7295C24.1004 28.5615 23.895 28.3469 23.727 28.0855C23.5684 27.8149 23.489 27.4835 23.489 27.0915C23.489 26.5875 23.629 26.1862 23.909 25.8875C24.1984 25.5889 24.567 25.3602 25.015 25.2015C25.463 25.0429 25.9577 24.9402 26.499 24.8935C27.0497 24.8375 27.5864 24.8095 28.109 24.8095V24.6415C28.109 24.2215 27.955 23.9135 27.647 23.7175C27.3484 23.5122 26.989 23.4095 26.569 23.4095C26.2144 23.4095 25.8737 23.4842 25.547 23.6335C25.2204 23.7829 24.9497 23.9649 24.735 24.1795L23.867 23.1575C24.2497 22.8029 24.6884 22.5369 25.183 22.3595C25.687 22.1822 26.1957 22.0935 26.709 22.0935C27.3064 22.0935 27.7964 22.1775 28.179 22.3455C28.571 22.5135 28.879 22.7329 29.103 23.0035C29.327 23.2742 29.481 23.5775 29.565 23.9135C29.6584 24.2495 29.705 24.5855 29.705 24.9215V29.0095H28.137V28.1555ZM28.109 25.9435H27.731C27.4604 25.9435 27.1757 25.9575 26.877 25.9855C26.5784 26.0042 26.303 26.0555 26.051 26.1395C25.799 26.2142 25.589 26.3262 25.421 26.4755C25.253 26.6155 25.169 26.8115 25.169 27.0635C25.169 27.2222 25.2017 27.3575 25.267 27.4695C25.3417 27.5722 25.435 27.6562 25.547 27.7215C25.659 27.7869 25.785 27.8335 25.925 27.8615C26.065 27.8895 26.205 27.9035 26.345 27.9035C26.9237 27.9035 27.3624 27.7495 27.661 27.4415C27.9597 27.1335 28.109 26.7135 28.109 26.1815V25.9435ZM26.261 21.2395C26.261 20.9969 26.3077 20.8009 26.401 20.6515C26.4944 20.4929 26.6764 20.3389 26.947 20.1895C27.2084 20.0495 27.339 19.8769 27.339 19.6715C27.339 19.3822 27.1757 19.2375 26.849 19.2375C26.6624 19.2375 26.5177 19.2889 26.415 19.3915C26.3217 19.4849 26.2564 19.6482 26.219 19.8815L25.113 19.7415C25.1877 19.2935 25.379 18.9575 25.687 18.7335C25.995 18.5095 26.3917 18.3975 26.877 18.3975C27.381 18.3975 27.773 18.5189 28.053 18.7615C28.333 18.9949 28.473 19.2795 28.473 19.6155C28.473 19.8675 28.4124 20.0822 28.291 20.2595C28.179 20.4369 27.9924 20.5862 27.731 20.7075C27.5724 20.7822 27.4604 20.8615 27.395 20.9455C27.339 21.0295 27.311 21.1275 27.311 21.2395H26.261ZM31.6903 22.2895H33.3703V29.0095H31.6903V22.2895ZM31.4523 20.0075C31.4523 19.7369 31.5503 19.5035 31.7463 19.3075C31.9516 19.1022 32.2083 18.9995 32.5163 18.9995C32.8243 18.9995 33.081 19.0975 33.2863 19.2935C33.501 19.4802 33.6083 19.7182 33.6083 20.0075C33.6083 20.2969 33.501 20.5395 33.2863 20.7355C33.081 20.9222 32.8243 21.0155 32.5163 21.0155C32.2083 21.0155 31.9516 20.9175 31.7463 20.7215C31.5503 20.5162 31.4523 20.2782 31.4523 20.0075ZM46.8884 25.3695C46.8884 25.9669 46.7857 26.5082 46.5804 26.9935C46.3751 27.4695 46.0951 27.8755 45.7404 28.2115C45.3857 28.5475 44.9657 28.8089 44.4804 28.9955C43.9951 29.1729 43.4677 29.2615 42.8984 29.2615C42.3291 29.2615 41.8017 29.1729 41.3164 28.9955C40.8311 28.8089 40.4064 28.5475 40.0424 28.2115C39.6877 27.8755 39.4077 27.4695 39.2024 26.9935C39.0064 26.5082 38.9084 25.9669 38.9084 25.3695V19.0975H40.6724V25.2995C40.6724 25.5889 40.7097 25.8782 40.7844 26.1675C40.8591 26.4475 40.9804 26.6995 41.1484 26.9235C41.3257 27.1475 41.5544 27.3295 41.8344 27.4695C42.1237 27.6095 42.4784 27.6795 42.8984 27.6795C43.3184 27.6795 43.6684 27.6095 43.9484 27.4695C44.2377 27.3295 44.4664 27.1475 44.6344 26.9235C44.8117 26.6995 44.9377 26.4475 45.0124 26.1675C45.0871 25.8782 45.1244 25.5889 45.1244 25.2995V19.0975H46.1184C46.5384 19.0975 46.8277 19.0042 46.9864 18.8175C47.1544 18.6215 47.2384 18.3509 47.2384 18.0055C47.2384 17.8562 47.2151 17.7069 47.1684 17.5575C47.1311 17.3989 47.0751 17.2635 47.0004 17.1515L48.4424 16.7875C48.5357 16.9742 48.6011 17.1655 48.6384 17.3615C48.6757 17.5482 48.6944 17.7629 48.6944 18.0055C48.6944 18.6589 48.5311 19.1489 48.2044 19.4755C47.8871 19.8022 47.4484 19.9749 46.8884 19.9935V25.3695ZM43.3044 16.2975H45.2084L43.2344 18.3135H41.9184L43.3044 16.2975ZM49.0393 22.2895H50.6353V23.3675H50.6633C50.8126 23.0315 51.0693 22.7375 51.4333 22.4855C51.8066 22.2242 52.2453 22.0935 52.7493 22.0935C53.1879 22.0935 53.5613 22.1729 53.8693 22.3315C54.1866 22.4809 54.4433 22.6815 54.6393 22.9335C54.8446 23.1855 54.9939 23.4749 55.0873 23.8015C55.1806 24.1282 55.2272 24.4642 55.2272 24.8095V29.0095H53.5473V25.2855C53.5473 25.0895 53.5333 24.8842 53.5053 24.6695C53.4773 24.4549 53.4166 24.2635 53.3233 24.0955C53.2299 23.9182 53.0993 23.7735 52.9313 23.6615C52.7726 23.5495 52.5579 23.4935 52.2873 23.4935C52.0166 23.4935 51.7833 23.5495 51.5873 23.6615C51.3913 23.7642 51.2279 23.8995 51.0973 24.0675C50.9759 24.2355 50.8826 24.4315 50.8173 24.6555C50.7519 24.8702 50.7193 25.0895 50.7193 25.3135V29.0095H49.0393V22.2895ZM64.0197 22.2895V28.4075C64.0197 29.0142 63.945 29.5602 63.7957 30.0455C63.6464 30.5402 63.413 30.9555 63.0957 31.2915C62.7877 31.6369 62.3957 31.9029 61.9197 32.0895C61.4437 32.2762 60.879 32.3695 60.2257 32.3695C59.955 32.3695 59.6657 32.3462 59.3577 32.2995C59.059 32.2529 58.7604 32.1829 58.4617 32.0895C58.1724 31.9962 57.8924 31.8795 57.6217 31.7395C57.351 31.5995 57.1084 31.4409 56.8937 31.2635L57.8597 29.9615C58.1864 30.2695 58.555 30.5029 58.9657 30.6615C59.3764 30.8295 59.7917 30.9135 60.2117 30.9135C60.613 30.9135 60.949 30.8529 61.2197 30.7315C61.4997 30.6195 61.719 30.4609 61.8777 30.2555C62.0457 30.0502 62.1624 29.8075 62.2277 29.5275C62.3024 29.2475 62.3397 28.9395 62.3397 28.6035V28.1135H62.3117C62.069 28.4402 61.7564 28.6922 61.3737 28.8695C61.0004 29.0375 60.5804 29.1215 60.1137 29.1215C59.6097 29.1215 59.1524 29.0282 58.7417 28.8415C58.331 28.6549 57.981 28.4029 57.6917 28.0855C57.4117 27.7682 57.1924 27.3995 57.0337 26.9795C56.875 26.5502 56.7957 26.0975 56.7957 25.6215C56.7957 25.1362 56.8704 24.6789 57.0197 24.2495C57.1784 23.8202 57.3977 23.4469 57.6777 23.1295C57.967 22.8122 58.3124 22.5602 58.7137 22.3735C59.1244 22.1869 59.5817 22.0935 60.0857 22.0935C60.5617 22.0935 61.005 22.1915 61.4157 22.3875C61.8264 22.5835 62.153 22.8869 62.3957 23.2975H62.4237V22.2895H64.0197ZM60.4357 23.4655C60.1277 23.4655 59.8524 23.5215 59.6097 23.6335C59.3764 23.7455 59.1757 23.8995 59.0077 24.0955C58.849 24.2822 58.723 24.5062 58.6297 24.7675C58.5457 25.0289 58.5037 25.3089 58.5037 25.6075C58.5037 25.8782 58.5457 26.1395 58.6297 26.3915C58.723 26.6435 58.849 26.8722 59.0077 27.0775C59.1757 27.2735 59.3764 27.4322 59.6097 27.5535C59.8524 27.6749 60.123 27.7355 60.4217 27.7355C60.7297 27.7355 61.005 27.6795 61.2477 27.5675C61.4997 27.4462 61.7097 27.2875 61.8777 27.0915C62.055 26.8955 62.1904 26.6715 62.2837 26.4195C62.377 26.1582 62.4237 25.8875 62.4237 25.6075C62.4237 25.3182 62.377 25.0429 62.2837 24.7815C62.1904 24.5202 62.055 24.2915 61.8777 24.0955C61.7097 23.8995 61.5044 23.7455 61.2617 23.6335C61.019 23.5215 60.7437 23.4655 60.4357 23.4655ZM76.3654 29.0095H74.7694V28.0015H74.7414C74.5081 28.3935 74.1814 28.6922 73.7614 28.8975C73.3507 29.1029 72.9074 29.2055 72.4314 29.2055C71.9181 29.2055 71.4561 29.1122 71.0454 28.9255C70.6441 28.7295 70.2987 28.4729 70.0094 28.1555C69.7294 27.8289 69.5101 27.4509 69.3514 27.0215C69.2021 26.5829 69.1274 26.1162 69.1274 25.6215C69.1274 25.1269 69.2067 24.6649 69.3654 24.2355C69.5241 23.8062 69.7481 23.4329 70.0374 23.1155C70.3267 22.7982 70.6721 22.5509 71.0734 22.3735C71.4747 22.1869 71.9134 22.0935 72.3894 22.0935C72.6974 22.0935 72.9727 22.1309 73.2154 22.2055C73.4581 22.2709 73.6681 22.3549 73.8454 22.4575C74.0321 22.5602 74.1907 22.6722 74.3214 22.7935C74.4521 22.9149 74.5594 23.0315 74.6434 23.1435H74.6854V18.4255H76.3654V29.0095ZM70.8354 25.6215C70.8354 25.8829 70.8727 26.1442 70.9474 26.4055C71.0314 26.6669 71.1527 26.9002 71.3114 27.1055C71.4701 27.3109 71.6707 27.4789 71.9134 27.6095C72.1561 27.7402 72.4407 27.8055 72.7674 27.8055C73.0754 27.8055 73.3507 27.7449 73.5934 27.6235C73.8361 27.4929 74.0414 27.3249 74.2094 27.1195C74.3867 26.9142 74.5174 26.6855 74.6014 26.4335C74.6947 26.1722 74.7414 25.9109 74.7414 25.6495C74.7414 25.3882 74.6947 25.1269 74.6014 24.8655C74.5174 24.6042 74.3867 24.3709 74.2094 24.1655C74.0414 23.9602 73.8361 23.7922 73.5934 23.6615C73.3507 23.5309 73.0754 23.4655 72.7674 23.4655C72.4407 23.4655 72.1561 23.5309 71.9134 23.6615C71.6707 23.7829 71.4701 23.9462 71.3114 24.1515C71.1527 24.3569 71.0314 24.5902 70.9474 24.8515C70.8727 25.1035 70.8354 25.3602 70.8354 25.6215ZM84.5384 29.0095H82.9424V27.9315H82.9144C82.7651 28.2675 82.5038 28.5662 82.1304 28.8275C81.7664 29.0795 81.3324 29.2055 80.8284 29.2055C80.3898 29.2055 80.0118 29.1309 79.6944 28.9815C79.3864 28.8229 79.1298 28.6175 78.9244 28.3655C78.7284 28.1135 78.5838 27.8242 78.4904 27.4975C78.3971 27.1709 78.3504 26.8349 78.3504 26.4895V22.2895H80.0304V26.0135C80.0304 26.2095 80.0444 26.4149 80.0724 26.6295C80.1004 26.8442 80.1611 27.0402 80.2544 27.2175C80.3478 27.3855 80.4738 27.5255 80.6324 27.6375C80.8004 27.7495 81.0198 27.8055 81.2904 27.8055C81.5518 27.8055 81.7804 27.7542 81.9764 27.6515C82.1818 27.5395 82.3451 27.3995 82.4664 27.2315C82.5971 27.0635 82.6951 26.8722 82.7604 26.6575C82.8258 26.4335 82.8584 26.2095 82.8584 25.9855V22.2895H84.5384V29.0095ZM80.3804 31.0675C80.3804 30.7969 80.4784 30.5589 80.6744 30.3535C80.8798 30.1575 81.1364 30.0595 81.4444 30.0595C81.7524 30.0595 82.0091 30.1529 82.2144 30.3395C82.4291 30.5355 82.5364 30.7782 82.5364 31.0675C82.5364 31.3569 82.4291 31.5949 82.2144 31.7815C82.0091 31.9775 81.7524 32.0755 81.4444 32.0755C81.1364 32.0755 80.8798 31.9729 80.6744 31.7675C80.4784 31.5715 80.3804 31.3382 80.3804 31.0675ZM86.5549 22.2895H88.1509V23.3675H88.1789C88.3282 23.0315 88.5849 22.7375 88.9489 22.4855C89.3222 22.2242 89.7609 22.0935 90.2649 22.0935C90.7035 22.0935 91.0769 22.1729 91.3849 22.3315C91.7022 22.4809 91.9589 22.6815 92.1549 22.9335C92.3602 23.1855 92.5095 23.4749 92.6029 23.8015C92.6962 24.1282 92.7429 24.4642 92.7429 24.8095V29.0095H91.0629V25.2855C91.0629 25.0895 91.0489 24.8842 91.0209 24.6695C90.9929 24.4549 90.9322 24.2635 90.8389 24.0955C90.7455 23.9182 90.6149 23.7735 90.4469 23.6615C90.2882 23.5495 90.0735 23.4935 89.8029 23.4935C89.5322 23.4935 89.2989 23.5495 89.1029 23.6615C88.9069 23.7642 88.7435 23.8995 88.6129 24.0675C88.4915 24.2355 88.3982 24.4315 88.3329 24.6555C88.2675 24.8702 88.2349 25.0895 88.2349 25.3135V29.0095H86.5549V22.2895ZM101.535 22.2895V28.4075C101.535 29.0142 101.461 29.5602 101.311 30.0455C101.162 30.5402 100.929 30.9555 100.611 31.2915C100.303 31.6369 99.9113 31.9029 99.4353 32.0895C98.9593 32.2762 98.3946 32.3695 97.7413 32.3695C97.4706 32.3695 97.1813 32.3462 96.8733 32.2995C96.5746 32.2529 96.276 32.1829 95.9773 32.0895C95.688 31.9962 95.408 31.8795 95.1373 31.7395C94.8666 31.5995 94.624 31.4409 94.4093 31.2635L95.3753 29.9615C95.702 30.2695 96.0706 30.5029 96.4813 30.6615C96.892 30.8295 97.3073 30.9135 97.7273 30.9135C98.1286 30.9135 98.4646 30.8529 98.7353 30.7315C99.0153 30.6195 99.2346 30.4609 99.3933 30.2555C99.5613 30.0502 99.678 29.8075 99.7433 29.5275C99.818 29.2475 99.8553 28.9395 99.8553 28.6035V28.1135H99.8273C99.5846 28.4402 99.272 28.6922 98.8893 28.8695C98.516 29.0375 98.096 29.1215 97.6293 29.1215C97.1253 29.1215 96.668 29.0282 96.2573 28.8415C95.8466 28.6549 95.4966 28.4029 95.2073 28.0855C94.9273 27.7682 94.708 27.3995 94.5493 26.9795C94.3906 26.5502 94.3113 26.0975 94.3113 25.6215C94.3113 25.1362 94.386 24.6789 94.5353 24.2495C94.694 23.8202 94.9133 23.4469 95.1933 23.1295C95.4826 22.8122 95.828 22.5602 96.2293 22.3735C96.64 22.1869 97.0973 22.0935 97.6013 22.0935C98.0773 22.0935 98.5206 22.1915 98.9313 22.3875C99.342 22.5835 99.6686 22.8869 99.9113 23.2975H99.9393V22.2895H101.535ZM97.9513 23.4655C97.6433 23.4655 97.368 23.5215 97.1253 23.6335C96.892 23.7455 96.6913 23.8995 96.5233 24.0955C96.3646 24.2822 96.2386 24.5062 96.1453 24.7675C96.0613 25.0289 96.0193 25.3089 96.0193 25.6075C96.0193 25.8782 96.0613 26.1395 96.1453 26.3915C96.2386 26.6435 96.3646 26.8722 96.5233 27.0775C96.6913 27.2735 96.892 27.4322 97.1253 27.5535C97.368 27.6749 97.6386 27.7355 97.9373 27.7355C98.2453 27.7355 98.5206 27.6795 98.7633 27.5675C99.0153 27.4462 99.2253 27.2875 99.3933 27.0915C99.5706 26.8955 99.706 26.6715 99.7993 26.4195C99.8926 26.1582 99.9393 25.8875 99.9393 25.6075C99.9393 25.3182 99.8926 25.0429 99.7993 24.7815C99.706 24.5202 99.5706 24.2915 99.3933 24.0955C99.2253 23.8995 99.02 23.7455 98.7773 23.6335C98.5346 23.5215 98.2593 23.4655 97.9513 23.4655ZM106.083 23.6335V22.2895H107.259V20.3435H108.911V22.2895H110.591V23.6335H108.911V26.7555C108.911 27.0542 108.962 27.3015 109.065 27.4975C109.177 27.6935 109.42 27.7915 109.793 27.7915C109.905 27.7915 110.026 27.7822 110.157 27.7635C110.288 27.7355 110.404 27.6982 110.507 27.6515L110.563 28.9675C110.414 29.0235 110.236 29.0655 110.031 29.0935C109.826 29.1309 109.63 29.1495 109.443 29.1495C108.995 29.1495 108.631 29.0889 108.351 28.9675C108.071 28.8369 107.847 28.6642 107.679 28.4495C107.52 28.2255 107.408 27.9735 107.343 27.6935C107.287 27.4042 107.259 27.0962 107.259 26.7695V23.6335H106.083ZM111.807 22.2895H113.417V23.4095H113.445C113.631 23.0175 113.893 22.7002 114.229 22.4575C114.565 22.2149 114.957 22.0935 115.405 22.0935C115.47 22.0935 115.54 22.0982 115.615 22.1075C115.689 22.1075 115.755 22.1169 115.811 22.1355V23.6755C115.699 23.6475 115.601 23.6289 115.517 23.6195C115.442 23.6102 115.367 23.6055 115.293 23.6055C114.91 23.6055 114.602 23.6755 114.369 23.8155C114.135 23.9555 113.953 24.1235 113.823 24.3195C113.692 24.5155 113.603 24.7162 113.557 24.9215C113.51 25.1269 113.487 25.2902 113.487 25.4115V29.0095H111.807V22.2895ZM121.392 24.9775C121.392 24.7629 121.36 24.5575 121.294 24.3615C121.238 24.1655 121.145 23.9929 121.014 23.8435C120.884 23.6942 120.716 23.5775 120.51 23.4935C120.314 23.4002 120.081 23.3535 119.81 23.3535C119.306 23.3535 118.877 23.5075 118.522 23.8155C118.177 24.1142 117.986 24.5015 117.948 24.9775H121.392ZM123.072 25.7335C123.072 25.8082 123.072 25.8829 123.072 25.9575C123.072 26.0322 123.068 26.1069 123.058 26.1815H117.948C117.967 26.4242 118.028 26.6482 118.13 26.8535C118.242 27.0495 118.387 27.2222 118.564 27.3715C118.742 27.5115 118.942 27.6235 119.166 27.7075C119.39 27.7915 119.624 27.8335 119.866 27.8335C120.286 27.8335 120.641 27.7589 120.93 27.6095C121.22 27.4509 121.458 27.2362 121.644 26.9655L122.764 27.8615C122.102 28.7575 121.14 29.2055 119.88 29.2055C119.358 29.2055 118.877 29.1262 118.438 28.9675C118 28.7995 117.617 28.5662 117.29 28.2675C116.973 27.9689 116.721 27.6049 116.534 27.1755C116.357 26.7369 116.268 26.2422 116.268 25.6915C116.268 25.1502 116.357 24.6602 116.534 24.2215C116.721 23.7735 116.973 23.3955 117.29 23.0875C117.608 22.7702 117.981 22.5275 118.41 22.3595C118.849 22.1822 119.32 22.0935 119.824 22.0935C120.291 22.0935 120.72 22.1729 121.112 22.3315C121.514 22.4809 121.859 22.7095 122.148 23.0175C122.438 23.3162 122.662 23.6942 122.82 24.1515C122.988 24.5995 123.072 25.1269 123.072 25.7335ZM120.832 21.1135L119.866 19.8535L118.9 21.1135H117.332L118.942 19.0975H120.832L122.428 21.1135H120.832ZM124.699 22.2895H126.295V23.3675H126.323C126.473 23.0315 126.729 22.7375 127.093 22.4855C127.467 22.2242 127.905 22.0935 128.409 22.0935C128.848 22.0935 129.221 22.1729 129.529 22.3315C129.847 22.4809 130.103 22.6815 130.299 22.9335C130.505 23.1855 130.654 23.4749 130.747 23.8015C130.841 24.1282 130.887 24.4642 130.887 24.8095V29.0095H129.207V25.2855C129.207 25.0895 129.193 24.8842 129.165 24.6695C129.137 24.4549 129.077 24.2635 128.983 24.0955C128.89 23.9182 128.759 23.7735 128.591 23.6615C128.433 23.5495 128.218 23.4935 127.947 23.4935C127.677 23.4935 127.443 23.5495 127.247 23.6615C127.051 23.7642 126.888 23.8995 126.757 24.0675C126.636 24.2355 126.543 24.4315 126.477 24.6555C126.412 24.8702 126.379 25.0895 126.379 25.3135V29.0095H124.699V22.2895ZM19.2 35.0975H20.726L24.996 45.0095H22.98L22.056 42.7415H17.758L16.862 45.0095H14.888L19.2 35.0975ZM21.44 41.2295L19.914 37.1975L18.36 41.2295H21.44ZM27.5028 38.2895V39.2275H27.5448C27.6288 39.0969 27.7361 38.9662 27.8668 38.8355C28.0068 38.6955 28.1748 38.5742 28.3708 38.4715C28.5668 38.3595 28.7861 38.2709 29.0288 38.2055C29.2808 38.1309 29.5608 38.0935 29.8688 38.0935C30.3448 38.0935 30.7834 38.1869 31.1848 38.3735C31.5861 38.5509 31.9314 38.7982 32.2208 39.1155C32.5101 39.4329 32.7341 39.8062 32.8928 40.2355C33.0514 40.6649 33.1308 41.1269 33.1308 41.6215C33.1308 42.1162 33.0514 42.5829 32.8928 43.0215C32.7434 43.4509 32.5241 43.8289 32.2348 44.1555C31.9548 44.4729 31.6094 44.7295 31.1988 44.9255C30.7974 45.1122 30.3401 45.2055 29.8268 45.2055C29.3508 45.2055 28.9121 45.1075 28.5108 44.9115C28.1188 44.7155 27.8154 44.4495 27.6008 44.1135H27.5728V48.3695H25.8928V38.2895H27.5028ZM31.4228 41.6215C31.4228 41.3602 31.3808 41.1035 31.2968 40.8515C31.2221 40.5902 31.1054 40.3569 30.9468 40.1515C30.7881 39.9462 30.5874 39.7829 30.3448 39.6615C30.1021 39.5309 29.8174 39.4655 29.4908 39.4655C29.1828 39.4655 28.9074 39.5309 28.6648 39.6615C28.4221 39.7922 28.2121 39.9602 28.0348 40.1655C27.8668 40.3709 27.7361 40.6042 27.6428 40.8655C27.5588 41.1269 27.5168 41.3882 27.5168 41.6495C27.5168 41.9109 27.5588 42.1722 27.6428 42.4335C27.7361 42.6855 27.8668 42.9142 28.0348 43.1195C28.2121 43.3249 28.4221 43.4929 28.6648 43.6235C28.9074 43.7449 29.1828 43.8055 29.4908 43.8055C29.8174 43.8055 30.1021 43.7402 30.3448 43.6095C30.5874 43.4789 30.7881 43.3109 30.9468 43.1055C31.1054 42.9002 31.2221 42.6669 31.2968 42.4055C31.3808 42.1442 31.4228 41.8829 31.4228 41.6215ZM36.3621 38.2895V39.2275H36.4041C36.4881 39.0969 36.5955 38.9662 36.7261 38.8355C36.8661 38.6955 37.0341 38.5742 37.2301 38.4715C37.4261 38.3595 37.6455 38.2709 37.8881 38.2055C38.1401 38.1309 38.4201 38.0935 38.7281 38.0935C39.2041 38.0935 39.6428 38.1869 40.0441 38.3735C40.4455 38.5509 40.7908 38.7982 41.0801 39.1155C41.3695 39.4329 41.5935 39.8062 41.7521 40.2355C41.9108 40.6649 41.9901 41.1269 41.9901 41.6215C41.9901 42.1162 41.9108 42.5829 41.7521 43.0215C41.6028 43.4509 41.3835 43.8289 41.0941 44.1555C40.8141 44.4729 40.4688 44.7295 40.0581 44.9255C39.6568 45.1122 39.1995 45.2055 38.6861 45.2055C38.2101 45.2055 37.7715 45.1075 37.3701 44.9115C36.9781 44.7155 36.6748 44.4495 36.4601 44.1135H36.4321V48.3695H34.7521V38.2895H36.3621ZM40.2821 41.6215C40.2821 41.3602 40.2401 41.1035 40.1561 40.8515C40.0815 40.5902 39.9648 40.3569 39.8061 40.1515C39.6475 39.9462 39.4468 39.7829 39.2041 39.6615C38.9615 39.5309 38.6768 39.4655 38.3501 39.4655C38.0421 39.4655 37.7668 39.5309 37.5241 39.6615C37.2815 39.7922 37.0715 39.9602 36.8941 40.1655C36.7261 40.3709 36.5955 40.6042 36.5021 40.8655C36.4181 41.1269 36.3761 41.3882 36.3761 41.6495C36.3761 41.9109 36.4181 42.1722 36.5021 42.4335C36.5955 42.6855 36.7261 42.9142 36.8941 43.1195C37.0715 43.3249 37.2815 43.4929 37.5241 43.6235C37.7668 43.7449 38.0421 43.8055 38.3501 43.8055C38.6768 43.8055 38.9615 43.7402 39.2041 43.6095C39.4468 43.4789 39.6475 43.3109 39.8061 43.1055C39.9648 42.9002 40.0815 42.6669 40.1561 42.4055C40.2401 42.1442 40.2821 41.8829 40.2821 41.6215ZM52.2495 37.1695C52.0628 36.9269 51.7968 36.7262 51.4515 36.5675C51.1155 36.3995 50.7748 36.3155 50.4295 36.3155C50.2242 36.3155 50.0188 36.3435 49.8135 36.3995C49.6082 36.4462 49.4215 36.5255 49.2535 36.6375C49.0855 36.7402 48.9455 36.8802 48.8335 37.0575C48.7308 37.2255 48.6795 37.4309 48.6795 37.6735C48.6795 37.8975 48.7262 38.0889 48.8195 38.2475C48.9128 38.4062 49.0388 38.5415 49.1975 38.6535C49.3655 38.7655 49.5662 38.8635 49.7995 38.9475C50.0328 39.0315 50.2895 39.1155 50.5695 39.1995C50.8868 39.3022 51.2135 39.4189 51.5495 39.5495C51.8948 39.6802 52.2075 39.8529 52.4875 40.0675C52.7768 40.2822 53.0102 40.5529 53.1875 40.8795C53.3742 41.2062 53.4675 41.6122 53.4675 42.0975C53.4675 42.6295 53.3695 43.0962 53.1735 43.4975C52.9775 43.8895 52.7162 44.2162 52.3895 44.4775C52.0628 44.7389 51.6802 44.9349 51.2415 45.0655C50.8028 45.1962 50.3408 45.2615 49.8555 45.2615C49.2115 45.2615 48.5815 45.1449 47.9655 44.9115C47.3495 44.6689 46.8455 44.3142 46.4535 43.8475L47.7135 42.6715C47.9562 43.0075 48.2782 43.2735 48.6795 43.4695C49.0902 43.6655 49.4915 43.7635 49.8835 43.7635C50.0888 43.7635 50.2988 43.7402 50.5135 43.6935C50.7282 43.6375 50.9195 43.5489 51.0875 43.4275C51.2648 43.3062 51.4048 43.1569 51.5075 42.9795C51.6195 42.7929 51.6755 42.5642 51.6755 42.2935C51.6755 42.0322 51.6148 41.8175 51.4935 41.6495C51.3722 41.4722 51.2088 41.3229 51.0035 41.2015C50.7982 41.0709 50.5555 40.9589 50.2755 40.8655C49.9955 40.7722 49.7015 40.6742 49.3935 40.5715C49.0948 40.4782 48.7962 40.3662 48.4975 40.2355C48.1988 40.1049 47.9282 39.9322 47.6855 39.7175C47.4522 39.5029 47.2608 39.2415 47.1115 38.9335C46.9622 38.6162 46.8875 38.2242 46.8875 37.7575C46.8875 37.2535 46.9902 36.8195 47.1955 36.4555C47.4102 36.0915 47.6855 35.7929 48.0215 35.5595C48.3668 35.3169 48.7542 35.1395 49.1835 35.0275C49.6222 34.9062 50.0655 34.8455 50.5135 34.8455C51.0175 34.8455 51.5262 34.9342 52.0395 35.1115C52.5622 35.2889 53.0148 35.5549 53.3975 35.9095L52.2495 37.1695ZM54.1025 39.6335V38.2895H55.2785V36.3435H56.9305V38.2895H58.6105V39.6335H56.9305V42.7555C56.9305 43.0542 56.9819 43.3015 57.0845 43.4975C57.1965 43.6935 57.4392 43.7915 57.8125 43.7915C57.9245 43.7915 58.0459 43.7822 58.1765 43.7635C58.3072 43.7355 58.4239 43.6982 58.5265 43.6515L58.5825 44.9675C58.4332 45.0235 58.2559 45.0655 58.0505 45.0935C57.8452 45.1309 57.6492 45.1495 57.4625 45.1495C57.0145 45.1495 56.6505 45.0889 56.3705 44.9675C56.0905 44.8369 55.8665 44.6642 55.6985 44.4495C55.5399 44.2255 55.4279 43.9735 55.3625 43.6935C55.3065 43.4042 55.2785 43.0962 55.2785 42.7695V39.6335H54.1025ZM59.4344 41.6215C59.4344 41.0895 59.5277 40.6089 59.7144 40.1795C59.9104 39.7409 60.1717 39.3675 60.4984 39.0595C60.825 38.7515 61.2124 38.5135 61.6604 38.3455C62.1084 38.1775 62.5844 38.0935 63.0884 38.0935C63.5924 38.0935 64.0684 38.1775 64.5164 38.3455C64.9644 38.5135 65.3517 38.7515 65.6784 39.0595C66.005 39.3675 66.2617 39.7409 66.4484 40.1795C66.6444 40.6089 66.7424 41.0895 66.7424 41.6215C66.7424 42.1535 66.6444 42.6389 66.4484 43.0775C66.2617 43.5162 66.005 43.8942 65.6784 44.2115C65.3517 44.5195 64.9644 44.7622 64.5164 44.9395C64.0684 45.1169 63.5924 45.2055 63.0884 45.2055C62.5844 45.2055 62.1084 45.1169 61.6604 44.9395C61.2124 44.7622 60.825 44.5195 60.4984 44.2115C60.1717 43.8942 59.9104 43.5162 59.7144 43.0775C59.5277 42.6389 59.4344 42.1535 59.4344 41.6215ZM61.1424 41.6215C61.1424 41.8829 61.1797 42.1442 61.2544 42.4055C61.3384 42.6669 61.4597 42.9002 61.6184 43.1055C61.777 43.3109 61.9777 43.4789 62.2204 43.6095C62.463 43.7402 62.7524 43.8055 63.0884 43.8055C63.4244 43.8055 63.7137 43.7402 63.9564 43.6095C64.199 43.4789 64.3997 43.3109 64.5584 43.1055C64.717 42.9002 64.8337 42.6669 64.9084 42.4055C64.9924 42.1442 65.0344 41.8829 65.0344 41.6215C65.0344 41.3602 64.9924 41.1035 64.9084 40.8515C64.8337 40.5902 64.717 40.3569 64.5584 40.1515C64.3997 39.9462 64.199 39.7829 63.9564 39.6615C63.7137 39.5309 63.4244 39.4655 63.0884 39.4655C62.7524 39.4655 62.463 39.5309 62.2204 39.6615C61.9777 39.7829 61.777 39.9462 61.6184 40.1515C61.4597 40.3569 61.3384 40.5902 61.2544 40.8515C61.1797 41.1035 61.1424 41.3602 61.1424 41.6215ZM68.3713 38.2895H69.9813V39.4095H70.0093C70.1959 39.0175 70.4573 38.7002 70.7933 38.4575C71.1293 38.2149 71.5213 38.0935 71.9693 38.0935C72.0346 38.0935 72.1046 38.0982 72.1793 38.1075C72.2539 38.1075 72.3193 38.1169 72.3753 38.1355V39.6755C72.2633 39.6475 72.1653 39.6289 72.0813 39.6195C72.0066 39.6102 71.9319 39.6055 71.8573 39.6055C71.4746 39.6055 71.1666 39.6755 70.9333 39.8155C70.6999 39.9555 70.5179 40.1235 70.3873 40.3195C70.2566 40.5155 70.1679 40.7162 70.1213 40.9215C70.0746 41.1269 70.0513 41.2902 70.0513 41.4115V45.0095H68.3713V38.2895ZM77.9568 40.9775C77.9568 40.7629 77.9241 40.5575 77.8588 40.3615C77.8028 40.1655 77.7095 39.9929 77.5788 39.8435C77.4481 39.6942 77.2801 39.5775 77.0748 39.4935C76.8788 39.4002 76.6455 39.3535 76.3748 39.3535C75.8708 39.3535 75.4415 39.5075 75.0868 39.8155C74.7415 40.1142 74.5501 40.5015 74.5128 40.9775H77.9568ZM79.6368 41.7335C79.6368 41.8082 79.6368 41.8829 79.6368 41.9575C79.6368 42.0322 79.6321 42.1069 79.6228 42.1815H74.5128C74.5315 42.4242 74.5921 42.6482 74.6948 42.8535C74.8068 43.0495 74.9515 43.2222 75.1288 43.3715C75.3061 43.5115 75.5068 43.6235 75.7308 43.7075C75.9548 43.7915 76.1881 43.8335 76.4308 43.8335C76.8508 43.8335 77.2055 43.7589 77.4948 43.6095C77.7841 43.4509 78.0221 43.2362 78.2088 42.9655L79.3288 43.8615C78.6661 44.7575 77.7048 45.2055 76.4448 45.2055C75.9221 45.2055 75.4415 45.1262 75.0028 44.9675C74.5641 44.7995 74.1815 44.5662 73.8548 44.2675C73.5375 43.9689 73.2855 43.6049 73.0988 43.1755C72.9215 42.7369 72.8328 42.2422 72.8328 41.6915C72.8328 41.1502 72.9215 40.6602 73.0988 40.2215C73.2855 39.7735 73.5375 39.3955 73.8548 39.0875C74.1721 38.7702 74.5455 38.5275 74.9748 38.3595C75.4135 38.1822 75.8848 38.0935 76.3888 38.0935C76.8555 38.0935 77.2848 38.1729 77.6768 38.3315C78.0781 38.4809 78.4235 38.7095 78.7128 39.0175C79.0021 39.3162 79.2261 39.6942 79.3848 40.1515C79.5528 40.5995 79.6368 41.1269 79.6368 41.7335Z" fill="#111C63"/>
<g filter="url(#filter0_d_16_982)">
<circle cx="27" cy="91.0095" r="10" transform="rotate(-90 27 91.0095)" fill="white"/>
</g>
<path d="M25.415 87.0383C25.1605 87.2954 25.1605 87.7095 25.415 87.9666L27.9879 90.5649L25.415 93.1633C25.1605 93.4204 25.1605 93.8345 25.415 94.0916V94.0916C25.6732 94.3522 26.0944 94.3522 26.3525 94.0916L29.4908 90.9221C29.6866 90.7243 29.6866 90.4056 29.4908 90.2078L26.3525 87.0383C26.0944 86.7776 25.6732 86.7776 25.415 87.0383V87.0383Z" fill="#2320D4"/>
<g clip-path="url(#clip0_16_982)">
<path d="M137.927 70.0117H117.069C113.163 70.0117 110 73.1744 110 77.0808V97.9426C110 101.845 113.163 105.007 117.069 105.007H137.931C141.833 105.007 145 101.845 145 97.9382V77.0808C144.996 73.1744 141.833 70.0117 137.927 70.0117V70.0117Z" fill="url(#paint0_linear_16_982)"/>
<path d="M127.349 78.0519L128.058 76.8271C128.495 76.0615 129.471 75.8035 130.236 76.2409C131.002 76.6783 131.26 77.6538 130.822 78.4194L123.994 90.2392H128.933C130.534 90.2392 131.43 92.1202 130.735 93.4238H116.255C115.372 93.4238 114.663 92.7151 114.663 91.8315C114.663 90.9479 115.372 90.2392 116.255 90.2392H120.315L125.512 81.2322L123.889 78.415C123.451 77.6494 123.71 76.6827 124.475 76.2365C125.241 75.7991 126.207 76.0571 126.654 76.8227L127.349 78.0519Z" fill="white"/>
<path d="M121.207 95.0643L119.676 97.7196C119.239 98.4851 118.263 98.7432 117.498 98.3058C116.732 97.8683 116.474 96.8928 116.912 96.1273L118.049 94.1588C119.335 93.7607 120.381 94.0669 121.207 95.0643V95.0643Z" fill="white"/>
<path d="M134.392 90.2479H138.534C139.418 90.2479 140.127 90.9566 140.127 91.8402C140.127 92.7238 139.418 93.4325 138.534 93.4325H136.233L137.786 96.1271C138.224 96.8927 137.966 97.8594 137.2 98.3056C136.435 98.7431 135.468 98.485 135.022 97.7194C132.406 93.1831 130.442 89.7886 129.138 87.527C127.804 85.226 128.758 82.9163 129.698 82.1333C130.744 83.9268 132.305 86.6346 134.392 90.2479V90.2479Z" fill="white"/>
</g>
<defs>
<filter id="filter0_d_16_982" x="1" y="69.0095" width="60" height="60" filterUnits="userSpaceOnUse" color-interpolation-filters="sRGB">
<feFlood flood-opacity="0" result="BackgroundImageFix"/>
<feColorMatrix in="SourceAlpha" type="matrix" values="0 0 0 0 0 0 0 0 0 0 0 0 0 0 0 0 0 0 127 0" result="hardAlpha"/>
<feOffset dx="4" dy="8"/>
<feGaussianBlur stdDeviation="10"/>
<feColorMatrix type="matrix" values="0 0 0 0 0.79947 0 0 0 0 0.838085 0 0 0 0 0.938865 0 0 0 1 0"/>
<feBlend mode="normal" in2="BackgroundImageFix" result="effect1_dropShadow_16_982"/>
<feBlend mode="normal" in="SourceGraphic" in2="effect1_dropShadow_16_982" result="shape"/>
</filter>
<linearGradient id="paint0_linear_16_982" x1="127.5" y1="70.0117" x2="127.5" y2="105.007" gradientUnits="userSpaceOnUse">
<stop stop-color="#00BFFC"/>
<stop offset="1" stop-color="#0073F6"/>
</linearGradient>
<clipPath id="clip0_16_982">
<rect width="35" height="35" fill="white" transform="translate(110 70.0095)"/>
</clipPath>
</defs>
</svg>
