<svg width="30" height="27" viewBox="0 0 30 27" fill="none" xmlns="http://www.w3.org/2000/svg">
<path fill-rule="evenodd" clip-rule="evenodd" d="M15 2.57321C11.5684 -0.857888 6.00506 -0.857737 2.57366 2.57366C-0.266203 5.41353 -0.755867 9.71362 1.10467 13.057V12.7092H9.57869L11.9128 6.87387C12.1518 6.27644 12.7452 5.89798 13.3877 5.93321C14.0302 5.96844 14.5786 6.40951 14.7508 7.02949L16.9073 14.7928L17.3237 13.6825C17.5432 13.0971 18.1029 12.7092 18.7281 12.7092H28.8955V13.0563C30.7554 9.71301 30.2655 5.41351 27.426 2.57394C23.9947 -0.857372 18.4316 -0.857614 15 2.57321ZM26.7174 15.7092H19.7677L18.0992 20.1585C17.8711 20.7666 17.2777 21.1589 16.6288 21.1304C15.98 21.1019 15.4232 20.6591 15.2494 20.0333L13.0489 12.1115L11.987 14.7663C11.7592 15.3358 11.2076 15.7092 10.5942 15.7092H3.28171L12.8783 25.3058C14.0498 26.4773 15.9493 26.4773 17.1209 25.3058L26.7174 15.7092Z" fill="#ED4C4C"/>
</svg>
