<svg width="30" height="25" viewBox="0 0 30 25" fill="none" xmlns="http://www.w3.org/2000/svg">
<path d="M27.7769 0H7.19193C5.95683 0 4.96875 1.01553 4.96875 2.22318V15.0133C4.96875 16.2484 5.98428 17.2365 7.19193 17.2365H21.3818L24.5931 20.4752C24.7303 20.6124 24.895 20.6948 25.0871 20.6948C25.4714 20.6948 25.8008 20.3929 25.8008 19.9812V17.2365H27.7769C29.012 17.2365 30.0001 16.221 30.0001 15.0133V2.22318C30.0001 0.988079 28.9846 0 27.7769 0Z" fill="#567FEA"/>
<path d="M3.70612 15.0681V10.7041H1.4555C0.659547 10.7041 0.000827619 11.3628 0.000827619 12.1588V20.5574C-0.026619 21.4083 0.6321 22.067 1.4555 22.067H2.74549V23.8785C2.74549 24.1255 2.96506 24.3451 3.21208 24.3451C3.34932 24.3451 3.4591 24.2902 3.54144 24.2078L5.65484 22.0945H14.9867C15.7826 22.0945 16.4414 21.4357 16.4414 20.6398V18.5538H7.19185C5.27058 18.5538 3.70612 16.9894 3.70612 15.0681Z" fill="#5AD3C0"/>
<path fill-rule="evenodd" clip-rule="evenodd" d="M9.50056 6.99884H15.9984C16.2772 6.99884 16.499 6.77632 16.499 6.50067C16.499 6.2244 16.2772 6 15.9984 6H9.50056C9.22497 6 9 6.2244 9 6.50067C9 6.77632 9.22497 6.99884 9.50056 6.99884Z" fill="white"/>
<path fill-rule="evenodd" clip-rule="evenodd" d="M22.4994 9.00146H9.50056C9.22497 9.00146 9 9.22336 9 9.49964C9 9.77529 9.22497 9.99968 9.50056 9.99968H22.4994C22.775 9.99968 23 9.77529 23 9.49964C23 9.22336 22.775 9.00146 22.4994 9.00146Z" fill="white"/>
<path fill-rule="evenodd" clip-rule="evenodd" d="M22.4994 11.9995H9.50056C9.22497 11.9995 9 12.2239 9 12.4996C9 12.7758 9.22497 13.0002 9.50056 13.0002H22.4994C22.775 13.0002 23 12.7758 23 12.4996C23 12.2239 22.775 11.9995 22.4994 11.9995Z" fill="white"/>
</svg>
