<svg width="30" height="30" viewBox="0 0 30 30" fill="none" xmlns="http://www.w3.org/2000/svg">
<path d="M0 6.67703C0 6.26813 0.248951 5.90042 0.628609 5.74856L14.6286 0.148556C14.867 0.0531917 15.133 0.0531919 15.3714 0.148556L29.3714 5.74856C29.751 5.90042 30 6.26813 30 6.67703V23.323C30 23.7319 29.751 24.0996 29.3714 24.2514L15.3714 29.8514C15.133 29.9468 14.867 29.9468 14.6286 29.8514L0.628609 24.2514C0.24895 24.0996 0 23.7319 0 23.323V6.67703Z" fill="#E7C2A7"/>
<path d="M0 7.47703C0 6.76957 0.714526 6.28581 1.37139 6.54856L14.6286 11.8514C14.867 11.9468 15.133 11.9468 15.3714 11.8514L28.6286 6.54856C29.2855 6.28581 30 6.76957 30 7.47703V23.323C30 23.7319 29.751 24.0996 29.3714 24.2514L15.3714 29.8514C15.133 29.9468 14.867 29.9468 14.6286 29.8514L0.628609 24.2514C0.24895 24.0996 0 23.7319 0 23.323V7.47703Z" fill="#C79978"/>
<path d="M25 5L10 11V16.557C10 17.2552 9.30263 17.7385 8.64888 17.4933L6.64888 16.7433C6.25857 16.597 6 16.2238 6 15.807V9L21 3L25 5Z" fill="white"/>
<path d="M30 23.323V7.47703C30 6.76957 29.2855 6.28581 28.6286 6.54856L15.6286 11.7486C15.249 11.9004 15 12.2681 15 12.677V28.523C15 29.2304 15.7145 29.7142 16.3714 29.4514L29.3714 24.2514C29.751 24.0996 30 23.7319 30 23.323Z" fill="#E9CEBA"/>
</svg>
