<svg width="30" height="30" viewBox="0 0 30 30" fill="none" xmlns="http://www.w3.org/2000/svg">
<circle cx="15" cy="15" r="15" fill="#779DFF"/>
<mask id="path-2-inside-1" fill="white">
<path fill-rule="evenodd" clip-rule="evenodd" d="M17.9131 8.23266C18.2835 7.76958 18.8444 7.5 19.4374 7.5C21.0744 7.5 21.9844 9.39347 20.9618 10.6717L12.0853 21.7673C11.7148 22.2304 11.154 22.5 10.5609 22.5C8.92401 22.5 8.01396 20.6065 9.03653 19.3283L17.9131 8.23266ZM13.5 10.75C13.5 12.4068 12.1569 13.75 10.5 13.75C8.84315 13.75 7.5 12.4068 7.5 10.75C7.5 9.09311 8.84315 7.74997 10.5 7.74997C12.1569 7.74997 13.5 9.09311 13.5 10.75ZM19.4998 22.25C21.1567 22.25 22.4998 20.9068 22.4998 19.25C22.4998 17.5931 21.1567 16.25 19.4998 16.25C17.843 16.25 16.4998 17.5931 16.4998 19.25C16.4998 20.9068 17.843 22.25 19.4998 22.25Z"/>
</mask>
<path d="M17.9131 8.23266L18.6393 8.81363L18.6393 8.81363L17.9131 8.23266ZM20.9618 10.6717L20.2356 10.0907V10.0907L20.9618 10.6717ZM12.0853 21.7673L12.8115 22.3483L12.0853 21.7673ZM9.03653 19.3283L9.76274 19.9093L9.03653 19.3283ZM19.4374 6.57C18.5619 6.57 17.7338 6.968 17.1868 7.6517L18.6393 8.81363C18.8332 8.57115 19.1269 8.43 19.4374 8.43V6.57ZM21.688 11.2527C23.1978 9.36551 21.8542 6.57 19.4374 6.57V8.43C20.2945 8.43 20.771 9.42144 20.2356 10.0907L21.688 11.2527ZM12.8115 22.3483L21.688 11.2527L20.2356 10.0907L11.3591 21.1864L12.8115 22.3483ZM10.5609 23.43C11.4365 23.43 12.2646 23.032 12.8115 22.3483L11.3591 21.1864C11.1651 21.4288 10.8714 21.57 10.5609 21.57V23.43ZM8.31032 18.7474C6.80061 20.6345 8.1442 23.43 10.5609 23.43V21.57C9.70382 21.57 9.22731 20.5786 9.76274 19.9093L8.31032 18.7474ZM17.1868 7.6517L8.31032 18.7474L9.76274 19.9093L18.6393 8.81363L17.1868 7.6517ZM10.5 14.68C12.6705 14.68 14.43 12.9204 14.43 10.75H12.57C12.57 11.8932 11.6432 12.82 10.5 12.82V14.68ZM6.57 10.75C6.57 12.9204 8.32952 14.68 10.5 14.68V12.82C9.35677 12.82 8.43 11.8932 8.43 10.75H6.57ZM10.5 6.81997C8.32952 6.81997 6.57 8.57949 6.57 10.75H8.43C8.43 9.60674 9.35677 8.67997 10.5 8.67997V6.81997ZM14.43 10.75C14.43 8.57949 12.6705 6.81997 10.5 6.81997V8.67997C11.6432 8.67997 12.57 9.60674 12.57 10.75H14.43ZM21.5698 19.25C21.5698 20.3932 20.643 21.32 19.4998 21.32V23.18C21.6703 23.18 23.4298 21.4204 23.4298 19.25H21.5698ZM19.4998 17.18C20.643 17.18 21.5698 18.1067 21.5698 19.25H23.4298C23.4298 17.0795 21.6703 15.32 19.4998 15.32V17.18ZM17.4298 19.25C17.4298 18.1067 18.3566 17.18 19.4998 17.18V15.32C17.3293 15.32 15.5698 17.0795 15.5698 19.25H17.4298ZM19.4998 21.32C18.3566 21.32 17.4298 20.3932 17.4298 19.25H15.5698C15.5698 21.4204 17.3293 23.18 19.4998 23.18V21.32Z" fill="white" mask="url(#path-2-inside-1)"/>
</svg>
