<svg width="35" height="35" viewBox="0 0 35 35" fill="none" xmlns="http://www.w3.org/2000/svg">
<path fill-rule="evenodd" clip-rule="evenodd" d="M12.529 0C9.39936 0 6.8623 2.53705 6.8623 5.66667V19.7255C6.8623 22.8551 9.39935 25.3922 12.529 25.3922H22.4701C25.5998 25.3922 28.1368 22.8551 28.1368 19.7255V5.66667C28.1368 2.53705 25.5998 0 22.4702 0H12.529ZM12.5604 3.43107C11.3086 3.43107 10.2938 4.44589 10.2938 5.69774V15.5762C10.2938 16.828 11.3086 17.8428 12.5604 17.8428H22.4389C23.6907 17.8428 24.7055 16.828 24.7055 15.5762V5.69774C24.7055 4.44589 23.6907 3.43107 22.4389 3.43107H12.5604ZM10.2938 21.2742C10.2938 20.5162 10.9083 19.9017 11.6663 19.9017H15.0977C15.8557 19.9017 16.4703 20.5162 16.4703 21.2742C16.4703 22.0323 15.8557 22.6468 15.0977 22.6468H11.6663C10.9083 22.6468 10.2938 22.0323 10.2938 21.2742ZM19.9014 19.9017C19.1433 19.9017 18.5288 20.5162 18.5288 21.2742C18.5288 22.0323 19.1433 22.6468 19.9014 22.6468H23.3327C24.0908 22.6468 24.7053 22.0323 24.7053 21.2742C24.7053 20.5162 24.0908 19.9017 23.3327 19.9017H19.9014Z" fill="#4A4A4A"/>
<path d="M21.2746 11.6073C21.2746 13.5353 19.5847 15.0983 17.5001 15.0983C15.4155 15.0983 13.7256 13.5353 13.7256 11.6073C13.7256 10.2297 15.6524 8.04849 16.7527 6.9152C17.1658 6.48966 17.8344 6.48966 18.2475 6.9152C19.3478 8.04849 21.2746 10.2297 21.2746 11.6073Z" fill="#ED4C4C"/>
<path d="M16.4697 25.3921H18.5286V33.9705C18.5286 34.5391 18.0677 34.9999 17.4991 34.9999C16.9306 34.9999 16.4697 34.5391 16.4697 33.9705V25.3921Z" fill="#4A4A4A"/>
</svg>
