<svg width="30" height="29" viewBox="0 0 30 29" fill="none" xmlns="http://www.w3.org/2000/svg">
<path d="M30 14.2363C30 22.0991 23.2837 28.4727 15 28.4727C6.71588 28.4727 0 22.0991 0 14.2363C0 6.37352 6.71588 0 15 0C23.2837 0 30 6.37352 30 14.2363Z" fill="#ED4C4C"/>
<path d="M7.86149 13.4886C7.7521 12.0175 8.31191 11.7308 9.16019 11.2972C9.96265 10.8871 11.0613 10.3249 11.1052 8.55579C11.1405 7.12722 10.1022 5.50591 8.02034 3.735C7.18765 3.02684 6.35912 2.44113 5.78049 2.05713C5.43994 2.30911 5.11122 2.57499 4.79492 2.85388C5.3296 3.19801 6.26249 3.83316 7.1863 4.61862C8.95833 6.12537 9.88115 7.47736 9.85554 8.52793C9.82853 9.60802 9.32684 9.86434 8.56692 10.2527C7.67293 10.7106 6.44842 11.3371 6.61459 13.572C6.68783 14.5557 7.22937 15.4107 8.22408 16.1119C8.95699 16.6289 9.94209 17.0625 11.1533 17.4022C13.1629 17.9662 15.107 18.0826 15.189 18.0869L15.264 16.9025C15.2453 16.9017 13.3639 16.7879 11.4893 16.2596C9.89486 15.8103 7.97136 14.9649 7.86149 13.4886Z" fill="#F0D4BA"/>
<path d="M21.4331 13.5522L18.7681 9.41178C18.7425 9.36662 18.7132 9.32313 18.6821 9.2832L17.6475 9.94711L17.6621 9.97058C17.6988 10.1365 17.5477 10.7934 16.9352 11.5841C16.2843 12.4235 15.4993 12.9249 14.8342 12.9249C14.8044 12.9249 14.7742 12.924 14.7445 12.9214L12.0629 11.9343L10.8512 13.9251L12.8365 15.7307C12.0848 16.4527 11.8001 17.3008 11.633 17.7988C11.6174 17.8439 11.6005 17.8952 11.585 17.9395C11.5122 17.9621 11.4811 17.9639 11.4728 17.9639C11.4522 17.9604 11.3813 17.9291 11.3295 17.9066C11.1185 17.8145 10.7994 17.6745 10.2273 17.6155C10.17 17.6094 10.1114 17.6068 10.0533 17.6068C9.41882 17.6068 8.74639 17.9518 8.05426 18.633C7.58913 19.0909 7.27378 19.5462 7.26047 19.5654L6.99316 19.9529L9.06503 22.0774L10.2754 21.5787C11.3744 22.6849 12.7409 23.2661 14.2533 23.2661C15.5891 23.2661 16.9839 22.8169 18.2876 21.9671C19.4906 21.1825 20.5334 20.0989 21.2218 18.9154C22.3396 16.9957 22.4174 15.0406 21.4331 13.5522Z" fill="#F1D4BA"/>
<path d="M19.1584 3.38135C15.9093 3.38135 13.2656 5.89094 13.2656 8.97581C13.2656 12.0597 15.9093 14.5693 19.1584 14.5693C22.4085 14.5693 25.0526 12.0597 25.0526 8.97581C25.0526 5.89094 22.4085 3.38135 19.1584 3.38135Z" fill="#F1E0D0"/>
</svg>
