<svg width="160" height="130" viewBox="0 0 160 130" fill="none" xmlns="http://www.w3.org/2000/svg">
<rect y="0.00952148" width="160" height="120" rx="10" fill="#EAE7FB"/>
<path d="M143.447 84.8856L137.52 81.4622L131.452 87.5303L137.52 93.5979L143.467 90.1631C144.395 89.5996 144.948 88.6153 144.948 87.5303C144.948 86.4453 144.395 85.4609 143.447 84.8856V84.8856Z" fill="#FFCE00"/>
<path d="M131.452 87.5303L114.924 70.8831C114.349 71.4579 114 72.238 114 73.1003V101.91C114 102.772 114.349 103.552 114.924 104.127L131.452 87.5303Z" fill="url(#paint0_linear_16_970)"/>
<path d="M131.452 87.5301L137.52 81.462L137.53 81.4524L129.399 76.7712L118.682 70.4721C117.717 69.8766 116.546 69.8561 115.561 70.4104C115.335 70.5539 115.129 70.6978 114.924 70.8824L131.452 87.5301Z" fill="#00F076"/>
<path d="M114.924 104.127C115.129 104.311 115.335 104.455 115.561 104.599C116.053 104.865 116.567 105.009 117.08 105.009C117.634 105.009 118.168 104.845 118.661 104.558L129.399 98.289L137.529 93.6078L137.52 93.5981L131.452 87.53L114.924 104.127Z" fill="#F63448"/>
<path d="M18.094 20.6375H15.056V19.0975H22.896V20.6375H19.858V29.0095H18.094V20.6375ZM28.137 28.1555H28.095C27.927 28.4542 27.6564 28.7015 27.283 28.8975C26.9097 29.0842 26.485 29.1775 26.009 29.1775C25.7384 29.1775 25.4537 29.1402 25.155 29.0655C24.8657 29.0002 24.595 28.8882 24.343 28.7295C24.1004 28.5615 23.895 28.3469 23.727 28.0855C23.5684 27.8149 23.489 27.4835 23.489 27.0915C23.489 26.5875 23.629 26.1862 23.909 25.8875C24.1984 25.5889 24.567 25.3602 25.015 25.2015C25.463 25.0429 25.9577 24.9402 26.499 24.8935C27.0497 24.8375 27.5864 24.8095 28.109 24.8095V24.6415C28.109 24.2215 27.955 23.9135 27.647 23.7175C27.3484 23.5122 26.989 23.4095 26.569 23.4095C26.2144 23.4095 25.8737 23.4842 25.547 23.6335C25.2204 23.7829 24.9497 23.9649 24.735 24.1795L23.867 23.1575C24.2497 22.8029 24.6884 22.5369 25.183 22.3595C25.687 22.1822 26.1957 22.0935 26.709 22.0935C27.3064 22.0935 27.7964 22.1775 28.179 22.3455C28.571 22.5135 28.879 22.7329 29.103 23.0035C29.327 23.2742 29.481 23.5775 29.565 23.9135C29.6584 24.2495 29.705 24.5855 29.705 24.9215V29.0095H28.137V28.1555ZM28.109 25.9435H27.731C27.4604 25.9435 27.1757 25.9575 26.877 25.9855C26.5784 26.0042 26.303 26.0555 26.051 26.1395C25.799 26.2142 25.589 26.3262 25.421 26.4755C25.253 26.6155 25.169 26.8115 25.169 27.0635C25.169 27.2222 25.2017 27.3575 25.267 27.4695C25.3417 27.5722 25.435 27.6562 25.547 27.7215C25.659 27.7869 25.785 27.8335 25.925 27.8615C26.065 27.8895 26.205 27.9035 26.345 27.9035C26.9237 27.9035 27.3624 27.7495 27.661 27.4415C27.9597 27.1335 28.109 26.7135 28.109 26.1815V25.9435ZM26.261 21.2395C26.261 20.9969 26.3077 20.8009 26.401 20.6515C26.4944 20.4929 26.6764 20.3389 26.947 20.1895C27.2084 20.0495 27.339 19.8769 27.339 19.6715C27.339 19.3822 27.1757 19.2375 26.849 19.2375C26.6624 19.2375 26.5177 19.2889 26.415 19.3915C26.3217 19.4849 26.2564 19.6482 26.219 19.8815L25.113 19.7415C25.1877 19.2935 25.379 18.9575 25.687 18.7335C25.995 18.5095 26.3917 18.3975 26.877 18.3975C27.381 18.3975 27.773 18.5189 28.053 18.7615C28.333 18.9949 28.473 19.2795 28.473 19.6155C28.473 19.8675 28.4124 20.0822 28.291 20.2595C28.179 20.4369 27.9924 20.5862 27.731 20.7075C27.5724 20.7822 27.4604 20.8615 27.395 20.9455C27.339 21.0295 27.311 21.1275 27.311 21.2395H26.261ZM31.6903 22.2895H33.3703V29.0095H31.6903V22.2895ZM31.4523 20.0075C31.4523 19.7369 31.5503 19.5035 31.7463 19.3075C31.9516 19.1022 32.2083 18.9995 32.5163 18.9995C32.8243 18.9995 33.081 19.0975 33.2863 19.2935C33.501 19.4802 33.6083 19.7182 33.6083 20.0075C33.6083 20.2969 33.501 20.5395 33.2863 20.7355C33.081 20.9222 32.8243 21.0155 32.5163 21.0155C32.2083 21.0155 31.9516 20.9175 31.7463 20.7215C31.5503 20.5162 31.4523 20.2782 31.4523 20.0075ZM46.8884 25.3695C46.8884 25.9669 46.7857 26.5082 46.5804 26.9935C46.3751 27.4695 46.0951 27.8755 45.7404 28.2115C45.3857 28.5475 44.9657 28.8089 44.4804 28.9955C43.9951 29.1729 43.4677 29.2615 42.8984 29.2615C42.3291 29.2615 41.8017 29.1729 41.3164 28.9955C40.8311 28.8089 40.4064 28.5475 40.0424 28.2115C39.6877 27.8755 39.4077 27.4695 39.2024 26.9935C39.0064 26.5082 38.9084 25.9669 38.9084 25.3695V19.0975H40.6724V25.2995C40.6724 25.5889 40.7097 25.8782 40.7844 26.1675C40.8591 26.4475 40.9804 26.6995 41.1484 26.9235C41.3257 27.1475 41.5544 27.3295 41.8344 27.4695C42.1237 27.6095 42.4784 27.6795 42.8984 27.6795C43.3184 27.6795 43.6684 27.6095 43.9484 27.4695C44.2377 27.3295 44.4664 27.1475 44.6344 26.9235C44.8117 26.6995 44.9377 26.4475 45.0124 26.1675C45.0871 25.8782 45.1244 25.5889 45.1244 25.2995V19.0975H46.1184C46.5384 19.0975 46.8277 19.0042 46.9864 18.8175C47.1544 18.6215 47.2384 18.3509 47.2384 18.0055C47.2384 17.8562 47.2151 17.7069 47.1684 17.5575C47.1311 17.3989 47.0751 17.2635 47.0004 17.1515L48.4424 16.7875C48.5357 16.9742 48.6011 17.1655 48.6384 17.3615C48.6757 17.5482 48.6944 17.7629 48.6944 18.0055C48.6944 18.6589 48.5311 19.1489 48.2044 19.4755C47.8871 19.8022 47.4484 19.9749 46.8884 19.9935V25.3695ZM43.3044 16.2975H45.2084L43.2344 18.3135H41.9184L43.3044 16.2975ZM49.0393 22.2895H50.6353V23.3675H50.6633C50.8126 23.0315 51.0693 22.7375 51.4333 22.4855C51.8066 22.2242 52.2453 22.0935 52.7493 22.0935C53.1879 22.0935 53.5613 22.1729 53.8693 22.3315C54.1866 22.4809 54.4433 22.6815 54.6393 22.9335C54.8446 23.1855 54.9939 23.4749 55.0873 23.8015C55.1806 24.1282 55.2272 24.4642 55.2272 24.8095V29.0095H53.5473V25.2855C53.5473 25.0895 53.5333 24.8842 53.5053 24.6695C53.4773 24.4549 53.4166 24.2635 53.3233 24.0955C53.2299 23.9182 53.0993 23.7735 52.9313 23.6615C52.7726 23.5495 52.5579 23.4935 52.2873 23.4935C52.0166 23.4935 51.7833 23.5495 51.5873 23.6615C51.3913 23.7642 51.2279 23.8995 51.0973 24.0675C50.9759 24.2355 50.8826 24.4315 50.8173 24.6555C50.7519 24.8702 50.7193 25.0895 50.7193 25.3135V29.0095H49.0393V22.2895ZM64.0197 22.2895V28.4075C64.0197 29.0142 63.945 29.5602 63.7957 30.0455C63.6464 30.5402 63.413 30.9555 63.0957 31.2915C62.7877 31.6369 62.3957 31.9029 61.9197 32.0895C61.4437 32.2762 60.879 32.3695 60.2257 32.3695C59.955 32.3695 59.6657 32.3462 59.3577 32.2995C59.059 32.2529 58.7604 32.1829 58.4617 32.0895C58.1724 31.9962 57.8924 31.8795 57.6217 31.7395C57.351 31.5995 57.1084 31.4409 56.8937 31.2635L57.8597 29.9615C58.1864 30.2695 58.555 30.5029 58.9657 30.6615C59.3764 30.8295 59.7917 30.9135 60.2117 30.9135C60.613 30.9135 60.949 30.8529 61.2197 30.7315C61.4997 30.6195 61.719 30.4609 61.8777 30.2555C62.0457 30.0502 62.1624 29.8075 62.2277 29.5275C62.3024 29.2475 62.3397 28.9395 62.3397 28.6035V28.1135H62.3117C62.069 28.4402 61.7564 28.6922 61.3737 28.8695C61.0004 29.0375 60.5804 29.1215 60.1137 29.1215C59.6097 29.1215 59.1524 29.0282 58.7417 28.8415C58.331 28.6549 57.981 28.4029 57.6917 28.0855C57.4117 27.7682 57.1924 27.3995 57.0337 26.9795C56.875 26.5502 56.7957 26.0975 56.7957 25.6215C56.7957 25.1362 56.8704 24.6789 57.0197 24.2495C57.1784 23.8202 57.3977 23.4469 57.6777 23.1295C57.967 22.8122 58.3124 22.5602 58.7137 22.3735C59.1244 22.1869 59.5817 22.0935 60.0857 22.0935C60.5617 22.0935 61.005 22.1915 61.4157 22.3875C61.8264 22.5835 62.153 22.8869 62.3957 23.2975H62.4237V22.2895H64.0197ZM60.4357 23.4655C60.1277 23.4655 59.8524 23.5215 59.6097 23.6335C59.3764 23.7455 59.1757 23.8995 59.0077 24.0955C58.849 24.2822 58.723 24.5062 58.6297 24.7675C58.5457 25.0289 58.5037 25.3089 58.5037 25.6075C58.5037 25.8782 58.5457 26.1395 58.6297 26.3915C58.723 26.6435 58.849 26.8722 59.0077 27.0775C59.1757 27.2735 59.3764 27.4322 59.6097 27.5535C59.8524 27.6749 60.123 27.7355 60.4217 27.7355C60.7297 27.7355 61.005 27.6795 61.2477 27.5675C61.4997 27.4462 61.7097 27.2875 61.8777 27.0915C62.055 26.8955 62.1904 26.6715 62.2837 26.4195C62.377 26.1582 62.4237 25.8875 62.4237 25.6075C62.4237 25.3182 62.377 25.0429 62.2837 24.7815C62.1904 24.5202 62.055 24.2915 61.8777 24.0955C61.7097 23.8995 61.5044 23.7455 61.2617 23.6335C61.019 23.5215 60.7437 23.4655 60.4357 23.4655ZM76.3654 29.0095H74.7694V28.0015H74.7414C74.5081 28.3935 74.1814 28.6922 73.7614 28.8975C73.3507 29.1029 72.9074 29.2055 72.4314 29.2055C71.9181 29.2055 71.4561 29.1122 71.0454 28.9255C70.6441 28.7295 70.2987 28.4729 70.0094 28.1555C69.7294 27.8289 69.5101 27.4509 69.3514 27.0215C69.2021 26.5829 69.1274 26.1162 69.1274 25.6215C69.1274 25.1269 69.2067 24.6649 69.3654 24.2355C69.5241 23.8062 69.7481 23.4329 70.0374 23.1155C70.3267 22.7982 70.6721 22.5509 71.0734 22.3735C71.4747 22.1869 71.9134 22.0935 72.3894 22.0935C72.6974 22.0935 72.9727 22.1309 73.2154 22.2055C73.4581 22.2709 73.6681 22.3549 73.8454 22.4575C74.0321 22.5602 74.1907 22.6722 74.3214 22.7935C74.4521 22.9149 74.5594 23.0315 74.6434 23.1435H74.6854V18.4255H76.3654V29.0095ZM70.8354 25.6215C70.8354 25.8829 70.8727 26.1442 70.9474 26.4055C71.0314 26.6669 71.1527 26.9002 71.3114 27.1055C71.4701 27.3109 71.6707 27.4789 71.9134 27.6095C72.1561 27.7402 72.4407 27.8055 72.7674 27.8055C73.0754 27.8055 73.3507 27.7449 73.5934 27.6235C73.8361 27.4929 74.0414 27.3249 74.2094 27.1195C74.3867 26.9142 74.5174 26.6855 74.6014 26.4335C74.6947 26.1722 74.7414 25.9109 74.7414 25.6495C74.7414 25.3882 74.6947 25.1269 74.6014 24.8655C74.5174 24.6042 74.3867 24.3709 74.2094 24.1655C74.0414 23.9602 73.8361 23.7922 73.5934 23.6615C73.3507 23.5309 73.0754 23.4655 72.7674 23.4655C72.4407 23.4655 72.1561 23.5309 71.9134 23.6615C71.6707 23.7829 71.4701 23.9462 71.3114 24.1515C71.1527 24.3569 71.0314 24.5902 70.9474 24.8515C70.8727 25.1035 70.8354 25.3602 70.8354 25.6215ZM84.5384 29.0095H82.9424V27.9315H82.9144C82.7651 28.2675 82.5038 28.5662 82.1304 28.8275C81.7664 29.0795 81.3324 29.2055 80.8284 29.2055C80.3898 29.2055 80.0118 29.1309 79.6944 28.9815C79.3864 28.8229 79.1298 28.6175 78.9244 28.3655C78.7284 28.1135 78.5838 27.8242 78.4904 27.4975C78.3971 27.1709 78.3504 26.8349 78.3504 26.4895V22.2895H80.0304V26.0135C80.0304 26.2095 80.0444 26.4149 80.0724 26.6295C80.1004 26.8442 80.1611 27.0402 80.2544 27.2175C80.3478 27.3855 80.4738 27.5255 80.6324 27.6375C80.8004 27.7495 81.0198 27.8055 81.2904 27.8055C81.5518 27.8055 81.7804 27.7542 81.9764 27.6515C82.1818 27.5395 82.3451 27.3995 82.4664 27.2315C82.5971 27.0635 82.6951 26.8722 82.7604 26.6575C82.8258 26.4335 82.8584 26.2095 82.8584 25.9855V22.2895H84.5384V29.0095ZM80.3804 31.0675C80.3804 30.7969 80.4784 30.5589 80.6744 30.3535C80.8798 30.1575 81.1364 30.0595 81.4444 30.0595C81.7524 30.0595 82.0091 30.1529 82.2144 30.3395C82.4291 30.5355 82.5364 30.7782 82.5364 31.0675C82.5364 31.3569 82.4291 31.5949 82.2144 31.7815C82.0091 31.9775 81.7524 32.0755 81.4444 32.0755C81.1364 32.0755 80.8798 31.9729 80.6744 31.7675C80.4784 31.5715 80.3804 31.3382 80.3804 31.0675ZM86.5549 22.2895H88.1509V23.3675H88.1789C88.3282 23.0315 88.5849 22.7375 88.9489 22.4855C89.3222 22.2242 89.7609 22.0935 90.2649 22.0935C90.7035 22.0935 91.0769 22.1729 91.3849 22.3315C91.7022 22.4809 91.9589 22.6815 92.1549 22.9335C92.3602 23.1855 92.5095 23.4749 92.6029 23.8015C92.6962 24.1282 92.7429 24.4642 92.7429 24.8095V29.0095H91.0629V25.2855C91.0629 25.0895 91.0489 24.8842 91.0209 24.6695C90.9929 24.4549 90.9322 24.2635 90.8389 24.0955C90.7455 23.9182 90.6149 23.7735 90.4469 23.6615C90.2882 23.5495 90.0735 23.4935 89.8029 23.4935C89.5322 23.4935 89.2989 23.5495 89.1029 23.6615C88.9069 23.7642 88.7435 23.8995 88.6129 24.0675C88.4915 24.2355 88.3982 24.4315 88.3329 24.6555C88.2675 24.8702 88.2349 25.0895 88.2349 25.3135V29.0095H86.5549V22.2895ZM101.535 22.2895V28.4075C101.535 29.0142 101.461 29.5602 101.311 30.0455C101.162 30.5402 100.929 30.9555 100.611 31.2915C100.303 31.6369 99.9113 31.9029 99.4353 32.0895C98.9593 32.2762 98.3946 32.3695 97.7413 32.3695C97.4706 32.3695 97.1813 32.3462 96.8733 32.2995C96.5746 32.2529 96.276 32.1829 95.9773 32.0895C95.688 31.9962 95.408 31.8795 95.1373 31.7395C94.8666 31.5995 94.624 31.4409 94.4093 31.2635L95.3753 29.9615C95.702 30.2695 96.0706 30.5029 96.4813 30.6615C96.892 30.8295 97.3073 30.9135 97.7273 30.9135C98.1286 30.9135 98.4646 30.8529 98.7353 30.7315C99.0153 30.6195 99.2346 30.4609 99.3933 30.2555C99.5613 30.0502 99.678 29.8075 99.7433 29.5275C99.818 29.2475 99.8553 28.9395 99.8553 28.6035V28.1135H99.8273C99.5846 28.4402 99.272 28.6922 98.8893 28.8695C98.516 29.0375 98.096 29.1215 97.6293 29.1215C97.1253 29.1215 96.668 29.0282 96.2573 28.8415C95.8466 28.6549 95.4966 28.4029 95.2073 28.0855C94.9273 27.7682 94.708 27.3995 94.5493 26.9795C94.3906 26.5502 94.3113 26.0975 94.3113 25.6215C94.3113 25.1362 94.386 24.6789 94.5353 24.2495C94.694 23.8202 94.9133 23.4469 95.1933 23.1295C95.4826 22.8122 95.828 22.5602 96.2293 22.3735C96.64 22.1869 97.0973 22.0935 97.6013 22.0935C98.0773 22.0935 98.5206 22.1915 98.9313 22.3875C99.342 22.5835 99.6686 22.8869 99.9113 23.2975H99.9393V22.2895H101.535ZM97.9513 23.4655C97.6433 23.4655 97.368 23.5215 97.1253 23.6335C96.892 23.7455 96.6913 23.8995 96.5233 24.0955C96.3646 24.2822 96.2386 24.5062 96.1453 24.7675C96.0613 25.0289 96.0193 25.3089 96.0193 25.6075C96.0193 25.8782 96.0613 26.1395 96.1453 26.3915C96.2386 26.6435 96.3646 26.8722 96.5233 27.0775C96.6913 27.2735 96.892 27.4322 97.1253 27.5535C97.368 27.6749 97.6386 27.7355 97.9373 27.7355C98.2453 27.7355 98.5206 27.6795 98.7633 27.5675C99.0153 27.4462 99.2253 27.2875 99.3933 27.0915C99.5706 26.8955 99.706 26.6715 99.7993 26.4195C99.8926 26.1582 99.9393 25.8875 99.9393 25.6075C99.9393 25.3182 99.8926 25.0429 99.7993 24.7815C99.706 24.5202 99.5706 24.2915 99.3933 24.0955C99.2253 23.8995 99.02 23.7455 98.7773 23.6335C98.5346 23.5215 98.2593 23.4655 97.9513 23.4655ZM106.083 23.6335V22.2895H107.259V20.3435H108.911V22.2895H110.591V23.6335H108.911V26.7555C108.911 27.0542 108.962 27.3015 109.065 27.4975C109.177 27.6935 109.42 27.7915 109.793 27.7915C109.905 27.7915 110.026 27.7822 110.157 27.7635C110.288 27.7355 110.404 27.6982 110.507 27.6515L110.563 28.9675C110.414 29.0235 110.236 29.0655 110.031 29.0935C109.826 29.1309 109.63 29.1495 109.443 29.1495C108.995 29.1495 108.631 29.0889 108.351 28.9675C108.071 28.8369 107.847 28.6642 107.679 28.4495C107.52 28.2255 107.408 27.9735 107.343 27.6935C107.287 27.4042 107.259 27.0962 107.259 26.7695V23.6335H106.083ZM111.807 22.2895H113.417V23.4095H113.445C113.631 23.0175 113.893 22.7002 114.229 22.4575C114.565 22.2149 114.957 22.0935 115.405 22.0935C115.47 22.0935 115.54 22.0982 115.615 22.1075C115.689 22.1075 115.755 22.1169 115.811 22.1355V23.6755C115.699 23.6475 115.601 23.6289 115.517 23.6195C115.442 23.6102 115.367 23.6055 115.293 23.6055C114.91 23.6055 114.602 23.6755 114.369 23.8155C114.135 23.9555 113.953 24.1235 113.823 24.3195C113.692 24.5155 113.603 24.7162 113.557 24.9215C113.51 25.1269 113.487 25.2902 113.487 25.4115V29.0095H111.807V22.2895ZM121.392 24.9775C121.392 24.7629 121.36 24.5575 121.294 24.3615C121.238 24.1655 121.145 23.9929 121.014 23.8435C120.884 23.6942 120.716 23.5775 120.51 23.4935C120.314 23.4002 120.081 23.3535 119.81 23.3535C119.306 23.3535 118.877 23.5075 118.522 23.8155C118.177 24.1142 117.986 24.5015 117.948 24.9775H121.392ZM123.072 25.7335C123.072 25.8082 123.072 25.8829 123.072 25.9575C123.072 26.0322 123.068 26.1069 123.058 26.1815H117.948C117.967 26.4242 118.028 26.6482 118.13 26.8535C118.242 27.0495 118.387 27.2222 118.564 27.3715C118.742 27.5115 118.942 27.6235 119.166 27.7075C119.39 27.7915 119.624 27.8335 119.866 27.8335C120.286 27.8335 120.641 27.7589 120.93 27.6095C121.22 27.4509 121.458 27.2362 121.644 26.9655L122.764 27.8615C122.102 28.7575 121.14 29.2055 119.88 29.2055C119.358 29.2055 118.877 29.1262 118.438 28.9675C118 28.7995 117.617 28.5662 117.29 28.2675C116.973 27.9689 116.721 27.6049 116.534 27.1755C116.357 26.7369 116.268 26.2422 116.268 25.6915C116.268 25.1502 116.357 24.6602 116.534 24.2215C116.721 23.7735 116.973 23.3955 117.29 23.0875C117.608 22.7702 117.981 22.5275 118.41 22.3595C118.849 22.1822 119.32 22.0935 119.824 22.0935C120.291 22.0935 120.72 22.1729 121.112 22.3315C121.514 22.4809 121.859 22.7095 122.148 23.0175C122.438 23.3162 122.662 23.6942 122.82 24.1515C122.988 24.5995 123.072 25.1269 123.072 25.7335ZM120.832 21.1135L119.866 19.8535L118.9 21.1135H117.332L118.942 19.0975H120.832L122.428 21.1135H120.832ZM124.699 22.2895H126.295V23.3675H126.323C126.473 23.0315 126.729 22.7375 127.093 22.4855C127.467 22.2242 127.905 22.0935 128.409 22.0935C128.848 22.0935 129.221 22.1729 129.529 22.3315C129.847 22.4809 130.103 22.6815 130.299 22.9335C130.505 23.1855 130.654 23.4749 130.747 23.8015C130.841 24.1282 130.887 24.4642 130.887 24.8095V29.0095H129.207V25.2855C129.207 25.0895 129.193 24.8842 129.165 24.6695C129.137 24.4549 129.077 24.2635 128.983 24.0955C128.89 23.9182 128.759 23.7735 128.591 23.6615C128.433 23.5495 128.218 23.4935 127.947 23.4935C127.677 23.4935 127.443 23.5495 127.247 23.6615C127.051 23.7642 126.888 23.8995 126.757 24.0675C126.636 24.2355 126.543 24.4315 126.477 24.6555C126.412 24.8702 126.379 25.0895 126.379 25.3135V29.0095H124.699V22.2895ZM24.772 44.4915C24.268 44.7342 23.7127 44.9209 23.106 45.0515C22.5087 45.1915 21.818 45.2615 21.034 45.2615C20.2313 45.2615 19.4987 45.1355 18.836 44.8835C18.1733 44.6222 17.604 44.2629 17.128 43.8055C16.652 43.3389 16.2787 42.7882 16.008 42.1535C15.7467 41.5095 15.616 40.8002 15.616 40.0255C15.616 39.2322 15.7513 38.5182 16.022 37.8835C16.302 37.2395 16.68 36.6935 17.156 36.2455C17.6413 35.7975 18.2107 35.4522 18.864 35.2095C19.5173 34.9669 20.2267 34.8455 20.992 34.8455C21.7853 34.8455 22.5087 34.9622 23.162 35.1955C23.8247 35.4195 24.3567 35.7182 24.758 36.0915L23.54 37.4075C23.288 37.1275 22.9333 36.8895 22.476 36.6935C22.028 36.4975 21.538 36.3995 21.006 36.3995C20.4833 36.3995 20.0073 36.4929 19.578 36.6795C19.158 36.8662 18.7987 37.1229 18.5 37.4495C18.2013 37.7762 17.968 38.1589 17.8 38.5975C17.6413 39.0362 17.562 39.5122 17.562 40.0255C17.562 40.5575 17.6413 41.0475 17.8 41.4955C17.968 41.9342 18.2013 42.3169 18.5 42.6435C18.808 42.9702 19.1767 43.2269 19.606 43.4135C20.0447 43.5909 20.5393 43.6795 21.09 43.6795C21.846 43.6795 22.504 43.5629 23.064 43.3295V40.8095H20.978V39.3535H24.772V44.4915ZM26.4441 41.6215C26.4441 41.0895 26.5375 40.6089 26.7241 40.1795C26.9201 39.7409 27.1815 39.3675 27.5081 39.0595C27.8348 38.7515 28.2221 38.5135 28.6701 38.3455C29.1181 38.1775 29.5941 38.0935 30.0981 38.0935C30.6021 38.0935 31.0781 38.1775 31.5261 38.3455C31.9741 38.5135 32.3615 38.7515 32.6881 39.0595C33.0148 39.3675 33.2715 39.7409 33.4581 40.1795C33.6541 40.6089 33.7521 41.0895 33.7521 41.6215C33.7521 42.1535 33.6541 42.6389 33.4581 43.0775C33.2715 43.5162 33.0148 43.8942 32.6881 44.2115C32.3615 44.5195 31.9741 44.7622 31.5261 44.9395C31.0781 45.1169 30.6021 45.2055 30.0981 45.2055C29.5941 45.2055 29.1181 45.1169 28.6701 44.9395C28.2221 44.7622 27.8348 44.5195 27.5081 44.2115C27.1815 43.8942 26.9201 43.5162 26.7241 43.0775C26.5375 42.6389 26.4441 42.1535 26.4441 41.6215ZM28.1521 41.6215C28.1521 41.8829 28.1895 42.1442 28.2641 42.4055C28.3481 42.6669 28.4695 42.9002 28.6281 43.1055C28.7868 43.3109 28.9875 43.4789 29.2301 43.6095C29.4728 43.7402 29.7621 43.8055 30.0981 43.8055C30.4341 43.8055 30.7235 43.7402 30.9661 43.6095C31.2088 43.4789 31.4095 43.3109 31.5681 43.1055C31.7268 42.9002 31.8435 42.6669 31.9181 42.4055C32.0021 42.1442 32.0441 41.8829 32.0441 41.6215C32.0441 41.3602 32.0021 41.1035 31.9181 40.8515C31.8435 40.5902 31.7268 40.3569 31.5681 40.1515C31.4095 39.9462 31.2088 39.7829 30.9661 39.6615C30.7235 39.5309 30.4341 39.4655 30.0981 39.4655C29.7621 39.4655 29.4728 39.5309 29.2301 39.6615C28.9875 39.7829 28.7868 39.9462 28.6281 40.1515C28.4695 40.3569 28.3481 40.5902 28.2641 40.8515C28.1895 41.1035 28.1521 41.3602 28.1521 41.6215ZM34.989 41.6215C34.989 41.0895 35.0824 40.6089 35.269 40.1795C35.465 39.7409 35.7264 39.3675 36.053 39.0595C36.3797 38.7515 36.767 38.5135 37.215 38.3455C37.663 38.1775 38.139 38.0935 38.643 38.0935C39.147 38.0935 39.623 38.1775 40.071 38.3455C40.519 38.5135 40.9064 38.7515 41.233 39.0595C41.5597 39.3675 41.8164 39.7409 42.003 40.1795C42.199 40.6089 42.297 41.0895 42.297 41.6215C42.297 42.1535 42.199 42.6389 42.003 43.0775C41.8164 43.5162 41.5597 43.8942 41.233 44.2115C40.9064 44.5195 40.519 44.7622 40.071 44.9395C39.623 45.1169 39.147 45.2055 38.643 45.2055C38.139 45.2055 37.663 45.1169 37.215 44.9395C36.767 44.7622 36.3797 44.5195 36.053 44.2115C35.7264 43.8942 35.465 43.5162 35.269 43.0775C35.0824 42.6389 34.989 42.1535 34.989 41.6215ZM36.697 41.6215C36.697 41.8829 36.7344 42.1442 36.809 42.4055C36.893 42.6669 37.0144 42.9002 37.173 43.1055C37.3317 43.3109 37.5324 43.4789 37.775 43.6095C38.0177 43.7402 38.307 43.8055 38.643 43.8055C38.979 43.8055 39.2684 43.7402 39.511 43.6095C39.7537 43.4789 39.9544 43.3109 40.113 43.1055C40.2717 42.9002 40.3884 42.6669 40.463 42.4055C40.547 42.1442 40.589 41.8829 40.589 41.6215C40.589 41.3602 40.547 41.1035 40.463 40.8515C40.3884 40.5902 40.2717 40.3569 40.113 40.1515C39.9544 39.9462 39.7537 39.7829 39.511 39.6615C39.2684 39.5309 38.979 39.4655 38.643 39.4655C38.307 39.4655 38.0177 39.5309 37.775 39.6615C37.5324 39.7829 37.3317 39.9462 37.173 40.1515C37.0144 40.3569 36.893 40.5902 36.809 40.8515C36.7344 41.1035 36.697 41.3602 36.697 41.6215ZM50.758 38.2895V44.4075C50.758 45.0142 50.6833 45.5602 50.534 46.0455C50.3846 46.5402 50.1513 46.9555 49.834 47.2915C49.526 47.6369 49.134 47.9029 48.658 48.0895C48.182 48.2762 47.6173 48.3695 46.964 48.3695C46.6933 48.3695 46.404 48.3462 46.096 48.2995C45.7973 48.2529 45.4986 48.1829 45.2 48.0895C44.9106 47.9962 44.6306 47.8795 44.36 47.7395C44.0893 47.5995 43.8466 47.4409 43.632 47.2635L44.598 45.9615C44.9246 46.2695 45.2933 46.5029 45.704 46.6615C46.1146 46.8295 46.53 46.9135 46.95 46.9135C47.3513 46.9135 47.6873 46.8529 47.958 46.7315C48.238 46.6195 48.4573 46.4609 48.616 46.2555C48.784 46.0502 48.9006 45.8075 48.966 45.5275C49.0406 45.2475 49.078 44.9395 49.078 44.6035V44.1135H49.05C48.8073 44.4402 48.4946 44.6922 48.112 44.8695C47.7386 45.0375 47.3186 45.1215 46.852 45.1215C46.348 45.1215 45.8906 45.0282 45.48 44.8415C45.0693 44.6549 44.7193 44.4029 44.43 44.0855C44.15 43.7682 43.9306 43.3995 43.772 42.9795C43.6133 42.5502 43.534 42.0975 43.534 41.6215C43.534 41.1362 43.6086 40.6789 43.758 40.2495C43.9166 39.8202 44.136 39.4469 44.416 39.1295C44.7053 38.8122 45.0506 38.5602 45.452 38.3735C45.8626 38.1869 46.32 38.0935 46.824 38.0935C47.3 38.0935 47.7433 38.1915 48.154 38.3875C48.5646 38.5835 48.8913 38.8869 49.134 39.2975H49.162V38.2895H50.758ZM47.174 39.4655C46.866 39.4655 46.5906 39.5215 46.348 39.6335C46.1146 39.7455 45.914 39.8995 45.746 40.0955C45.5873 40.2822 45.4613 40.5062 45.368 40.7675C45.284 41.0289 45.242 41.3089 45.242 41.6075C45.242 41.8782 45.284 42.1395 45.368 42.3915C45.4613 42.6435 45.5873 42.8722 45.746 43.0775C45.914 43.2735 46.1146 43.4322 46.348 43.5535C46.5906 43.6749 46.8613 43.7355 47.16 43.7355C47.468 43.7355 47.7433 43.6795 47.986 43.5675C48.238 43.4462 48.448 43.2875 48.616 43.0915C48.7933 42.8955 48.9286 42.6715 49.022 42.4195C49.1153 42.1582 49.162 41.8875 49.162 41.6075C49.162 41.3182 49.1153 41.0429 49.022 40.7815C48.9286 40.5202 48.7933 40.2915 48.616 40.0955C48.448 39.8995 48.2426 39.7455 48 39.6335C47.7573 39.5215 47.482 39.4655 47.174 39.4655ZM52.7997 34.4255H54.4797V45.0095H52.7997V34.4255ZM61.2498 40.9775C61.2498 40.7629 61.2171 40.5575 61.1518 40.3615C61.0958 40.1655 61.0024 39.9929 60.8718 39.8435C60.7411 39.6942 60.5731 39.5775 60.3678 39.4935C60.1718 39.4002 59.9384 39.3535 59.6678 39.3535C59.1638 39.3535 58.7344 39.5075 58.3798 39.8155C58.0344 40.1142 57.8431 40.5015 57.8058 40.9775H61.2498ZM62.9298 41.7335C62.9298 41.8082 62.9298 41.8829 62.9298 41.9575C62.9298 42.0322 62.9251 42.1069 62.9158 42.1815H57.8058C57.8244 42.4242 57.8851 42.6482 57.9878 42.8535C58.0998 43.0495 58.2444 43.2222 58.4218 43.3715C58.5991 43.5115 58.7998 43.6235 59.0238 43.7075C59.2478 43.7915 59.4811 43.8335 59.7238 43.8335C60.1438 43.8335 60.4984 43.7589 60.7878 43.6095C61.0771 43.4509 61.3151 43.2362 61.5018 42.9655L62.6218 43.8615C61.9591 44.7575 60.9978 45.2055 59.7378 45.2055C59.2151 45.2055 58.7344 45.1262 58.2958 44.9675C57.8571 44.7995 57.4744 44.5662 57.1478 44.2675C56.8304 43.9689 56.5784 43.6049 56.3918 43.1755C56.2144 42.7369 56.1258 42.2422 56.1258 41.6915C56.1258 41.1502 56.2144 40.6602 56.3918 40.2215C56.5784 39.7735 56.8304 39.3955 57.1478 39.0875C57.4651 38.7702 57.8384 38.5275 58.2678 38.3595C58.7064 38.1822 59.1778 38.0935 59.6818 38.0935C60.1484 38.0935 60.5778 38.1729 60.9698 38.3315C61.3711 38.4809 61.7164 38.7095 62.0058 39.0175C62.2951 39.3162 62.5191 39.6942 62.6778 40.1515C62.8458 40.5995 62.9298 41.1269 62.9298 41.7335ZM68.1408 35.0975H71.3748C71.9442 35.0975 72.4575 35.1489 72.9148 35.2515C73.3722 35.3542 73.7642 35.5222 74.0908 35.7555C74.4175 35.9889 74.6695 36.2875 74.8468 36.6515C75.0242 37.0155 75.1128 37.4542 75.1128 37.9675C75.1128 38.5182 75.0102 38.9802 74.8048 39.3535C74.5995 39.7269 74.3195 40.0302 73.9648 40.2635C73.6195 40.4875 73.2135 40.6509 72.7468 40.7535C72.2802 40.8562 71.7855 40.9075 71.2628 40.9075H69.9048V45.0095H68.1408V35.0975ZM71.1368 39.4235C71.4262 39.4235 71.7015 39.4049 71.9628 39.3675C72.2242 39.3209 72.4575 39.2462 72.6628 39.1435C72.8682 39.0315 73.0315 38.8822 73.1528 38.6955C73.2742 38.5089 73.3348 38.2662 73.3348 37.9675C73.3348 37.6782 73.2742 37.4449 73.1528 37.2675C73.0315 37.0809 72.8682 36.9362 72.6628 36.8335C72.4668 36.7309 72.2382 36.6655 71.9768 36.6375C71.7248 36.6002 71.4635 36.5815 71.1928 36.5815H69.9048V39.4235H71.1368ZM76.6298 34.4255H78.3098V45.0095H76.6298V34.4255ZM84.5198 44.1555H84.4778C84.3098 44.4542 84.0392 44.7015 83.6658 44.8975C83.2925 45.0842 82.8678 45.1775 82.3918 45.1775C82.1212 45.1775 81.8365 45.1402 81.5378 45.0655C81.2485 45.0002 80.9778 44.8882 80.7258 44.7295C80.4832 44.5615 80.2778 44.3469 80.1098 44.0855C79.9512 43.8149 79.8718 43.4835 79.8718 43.0915C79.8718 42.5875 80.0118 42.1862 80.2918 41.8875C80.5812 41.5889 80.9498 41.3602 81.3978 41.2015C81.8458 41.0429 82.3405 40.9402 82.8818 40.8935C83.4325 40.8375 83.9692 40.8095 84.4918 40.8095V40.6415C84.4918 40.2215 84.3378 39.9135 84.0298 39.7175C83.7312 39.5122 83.3718 39.4095 82.9518 39.4095C82.5972 39.4095 82.2565 39.4842 81.9298 39.6335C81.6032 39.7829 81.3325 39.9649 81.1178 40.1795L80.2498 39.1575C80.6325 38.8029 81.0712 38.5369 81.5658 38.3595C82.0698 38.1822 82.5785 38.0935 83.0918 38.0935C83.6892 38.0935 84.1792 38.1775 84.5618 38.3455C84.9538 38.5135 85.2618 38.7329 85.4858 39.0035C85.7098 39.2742 85.8638 39.5775 85.9478 39.9135C86.0412 40.2495 86.0878 40.5855 86.0878 40.9215V45.0095H84.5198V44.1555ZM84.4918 41.9435H84.1138C83.8432 41.9435 83.5585 41.9575 83.2598 41.9855C82.9612 42.0042 82.6858 42.0555 82.4338 42.1395C82.1818 42.2142 81.9718 42.3262 81.8038 42.4755C81.6358 42.6155 81.5518 42.8115 81.5518 43.0635C81.5518 43.2222 81.5845 43.3575 81.6498 43.4695C81.7245 43.5722 81.8178 43.6562 81.9298 43.7215C82.0418 43.7869 82.1678 43.8335 82.3078 43.8615C82.4478 43.8895 82.5878 43.9035 82.7278 43.9035C83.3065 43.9035 83.7452 43.7495 84.0438 43.4415C84.3425 43.1335 84.4918 42.7135 84.4918 42.1815V41.9435ZM87.0371 38.2895H88.8991L90.7751 43.1755H90.8031L92.4691 38.2895H94.2191L91.0411 46.4515C90.9198 46.7595 90.7891 47.0302 90.6491 47.2635C90.5091 47.5062 90.3411 47.7069 90.1451 47.8655C89.9491 48.0335 89.7158 48.1595 89.4451 48.2435C89.1838 48.3275 88.8664 48.3695 88.4931 48.3695C88.3531 48.3695 88.2084 48.3602 88.0591 48.3415C87.9191 48.3322 87.7744 48.3089 87.6251 48.2715L87.7651 46.8155C87.8771 46.8529 87.9844 46.8762 88.0871 46.8855C88.1991 46.9042 88.3018 46.9135 88.3951 46.9135C88.5724 46.9135 88.7218 46.8902 88.8431 46.8435C88.9644 46.8062 89.0671 46.7409 89.1511 46.6475C89.2351 46.5635 89.3098 46.4562 89.3751 46.3255C89.4404 46.1949 89.5104 46.0409 89.5851 45.8635L89.9211 45.0095L87.0371 38.2895Z" fill="#111C63"/>
<g filter="url(#filter0_d_16_970)">
<circle cx="27" cy="91.0095" r="10" transform="rotate(-90 27 91.0095)" fill="white"/>
</g>
<path d="M25.4151 87.0383C25.1605 87.2954 25.1605 87.7095 25.4151 87.9666L27.9879 90.5649L25.4151 93.1633C25.1605 93.4204 25.1605 93.8345 25.4151 94.0916V94.0916C25.6732 94.3522 26.0944 94.3522 26.3525 94.0916L29.4908 90.9221C29.6866 90.7243 29.6866 90.4056 29.4908 90.2078L26.3525 87.0383C26.0944 86.7776 25.6732 86.7776 25.4151 87.0383V87.0383Z" fill="#2320D4"/>
<defs>
<filter id="filter0_d_16_970" x="1" y="69.0095" width="60" height="60" filterUnits="userSpaceOnUse" color-interpolation-filters="sRGB">
<feFlood flood-opacity="0" result="BackgroundImageFix"/>
<feColorMatrix in="SourceAlpha" type="matrix" values="0 0 0 0 0 0 0 0 0 0 0 0 0 0 0 0 0 0 127 0" result="hardAlpha"/>
<feOffset dx="4" dy="8"/>
<feGaussianBlur stdDeviation="10"/>
<feColorMatrix type="matrix" values="0 0 0 0 0.79947 0 0 0 0 0.838085 0 0 0 0 0.938865 0 0 0 1 0"/>
<feBlend mode="normal" in2="BackgroundImageFix" result="effect1_dropShadow_16_970"/>
<feBlend mode="normal" in="SourceGraphic" in2="effect1_dropShadow_16_970" result="shape"/>
</filter>
<linearGradient id="paint0_linear_16_970" x1="106.613" y1="95.8161" x2="123.235" y2="79.1938" gradientUnits="userSpaceOnUse">
<stop stop-color="#00E2FF"/>
<stop offset="1" stop-color="#00C5FF"/>
</linearGradient>
</defs>
</svg>
