<svg width="35" height="28" viewBox="0 0 35 28" fill="none" xmlns="http://www.w3.org/2000/svg">
<path d="M10.2715 12.2441H11.3935C13.6026 12.2441 15.3935 14.035 15.3935 16.2441V26.1467" stroke="#4A4A4A" stroke-width="2" stroke-linecap="round" stroke-linejoin="round"/>
<path d="M3.91744 3.77542C2.81158 5.52009 1.22266 8.58067 1.22266 11.8781C1.22266 15.1756 2.81159 18.2362 3.91744 19.9809C4.77963 21.3411 6.2505 22.0535 7.74313 22.1601C9.70584 22.3003 11.2242 21.1297 12.0142 19.6424C12.7983 18.1662 12.9534 16.2384 12.1178 14.5916C11.5692 13.5107 11.2715 12.5767 11.2715 11.8781C11.2715 11.1795 11.5692 10.2456 12.1178 9.16464C12.9534 7.51784 12.7983 5.59006 12.0142 4.11389C11.2242 2.62658 9.70584 1.45598 7.74313 1.59617C6.2505 1.70279 4.77963 2.41516 3.91744 3.77542Z" fill="#ED4C4C" stroke="#ED4C4C" stroke-width="2"/>
<path d="M24.1738 12.2441H23.0518C20.8427 12.2441 19.0518 14.035 19.0518 16.2441V26.1467" stroke="#4A4A4A" stroke-width="2" stroke-linecap="round" stroke-linejoin="round"/>
<path d="M30.5279 3.77542C31.6337 5.52009 33.2227 8.58067 33.2227 11.8781C33.2227 15.1756 31.6337 18.2362 30.5279 19.9809C29.6657 21.3411 28.1948 22.0535 26.7022 22.1601C24.7395 22.3003 23.2211 21.1297 22.4311 19.6424C21.647 18.1662 21.4919 16.2384 22.3276 14.5916C22.8761 13.5107 23.1738 12.5767 23.1738 11.8781C23.1738 11.1795 22.8761 10.2456 22.3276 9.16464C21.4919 7.51784 21.647 5.59006 22.4311 4.11389C23.2211 2.62658 24.7395 1.45598 26.7022 1.59617C28.1948 1.70279 29.6657 2.41516 30.5279 3.77542Z" fill="#ED4C4C" stroke="#ED4C4C" stroke-width="2"/>
</svg>
