<svg width="207" height="30" viewBox="0 0 207 30" fill="none" xmlns="http://www.w3.org/2000/svg">
<path fill-rule="evenodd" clip-rule="evenodd" d="M37.4981 7.531C38.0926 7.531 38.6699 7.60288 39.2252 7.73468C39.2757 7.73534 39.3229 7.73601 39.3622 7.73601V6.5166H25.1855C24.8969 6.9346 24.6289 7.36792 24.3828 7.81522H35.4631C36.1095 7.63151 36.7918 7.531 37.4981 7.531ZM17.2682 22.1679C17.1777 22.1966 17.054 22.2179 16.907 22.2358C16.2939 22.3982 15.6495 22.4861 14.9851 22.4861C14.3433 22.4861 13.7202 22.4056 13.125 22.2531C13.1077 22.2531 13.0871 22.2525 13.0718 22.2525L12.9102 23.4672H27.418C27.704 23.0479 27.9713 22.6159 28.2147 22.1679H17.2682ZM21.7896 18.2721H29.6696C29.7647 17.8461 29.8412 17.4134 29.8984 16.9735H22.275C22.1527 17.4254 21.9897 17.8601 21.7896 18.2721ZM22.9053 11.7105C22.8089 12.1378 22.7311 12.5705 22.6719 13.0098H30.3032C30.4282 12.5578 30.5945 12.1238 30.798 11.7105H22.9053ZM31.4334 1.32219C30.6147 1.68761 29.834 2.12093 29.1004 2.62014H37.5258V1.32219H31.4334ZM27.4478 3.91941C27.0008 4.32544 26.5819 4.76075 26.1875 5.21803H37.5205V3.91941H27.4478ZM23.5342 27.3631H15.043V28.6617H21.2385C22.0445 28.295 22.8126 27.861 23.5342 27.3631ZM23.75 9.1139C23.5684 9.53657 23.4075 9.96988 23.2645 10.4125H31.6207C31.9985 9.92795 32.4347 9.49197 32.9182 9.1139H23.75ZM20.9876 19.5714C20.6165 20.054 20.1876 20.4899 19.7121 20.87H28.8424C29.022 20.4467 29.1809 20.0134 29.3226 19.5714H20.9876ZM26.4183 24.7658C26.0266 25.2231 25.609 25.6577 25.1661 26.0644H15.0441L14.5474 24.7658H26.4183Z" fill="#ffffff"/>
<path fill-rule="evenodd" clip-rule="evenodd" d="M37.4963 0C35.4945 0 33.5852 0.393379 31.8401 1.10625C35.0117 2.39955 37.642 4.74784 39.2932 7.71849C42.5633 8.52455 44.9893 11.4779 44.9893 15.0003C44.9893 19.1418 41.6349 22.5005 37.4963 22.5005C33.3578 22.5005 30.0026 19.1418 30.0026 15.0003H29.9734C29.9734 6.71607 23.2638 0 14.9874 0C6.71026 0 0 6.71607 0 15.0003C0 23.2846 6.71026 30 14.9874 30C16.9692 30 18.8599 29.6133 20.5923 28.9144C17.3862 27.6204 14.73 25.2522 13.0707 22.2529C9.86055 21.4042 7.49301 18.4802 7.49301 15.0003C7.49301 10.8582 10.8481 7.4995 14.9874 7.4995C19.1252 7.4995 22.4804 10.8582 22.4804 15.0003H22.5096C22.5096 23.2846 29.2199 30 37.4963 30C45.7727 30 52.483 23.2846 52.483 15.0003C52.483 6.71607 45.7727 0 37.4963 0Z" fill="#ffffff"/>
<path fill-rule="evenodd" clip-rule="evenodd" d="M78.4733 19.9227C78.4733 20.7356 78.3811 21.5873 78.1968 22.4776C78.0124 23.3679 77.6728 24.1856 77.178 24.9308C76.6831 25.676 75.9942 26.2905 75.1113 26.7743C74.2283 27.2582 73.0882 27.5002 71.691 27.5002C69.9445 27.5002 68.4891 27.0502 67.3248 26.1502C66.1604 25.2502 65.3842 24.0937 64.9961 22.6808L69.3915 21.2002C69.5273 21.7421 69.7747 22.1776 70.1337 22.5066C70.4927 22.8356 70.9342 23.0002 71.4582 23.0002C72.2732 23.0002 72.8117 22.7195 73.0737 22.1582C73.3357 21.5969 73.4666 20.8615 73.4666 19.9518V6.39372H78.4733V19.9227ZM87.526 7.87417C87.526 8.24191 87.4532 8.58545 87.3076 8.90481C87.1621 9.22417 86.968 9.49997 86.7255 9.73223C86.4829 9.96449 86.1918 10.1484 85.8522 10.2838C85.5126 10.4193 85.1585 10.4871 84.7898 10.4871C84.0135 10.4871 83.3635 10.2306 82.8395 9.71771C82.3155 9.20481 82.0536 8.5903 82.0536 7.87417C82.0536 7.52578 82.1215 7.19191 82.2573 6.87255C82.3932 6.5532 82.5872 6.2774 82.8395 6.04514C83.0918 5.81288 83.3829 5.62417 83.7128 5.47901C84.0427 5.33385 84.4017 5.26127 84.7898 5.26127C85.1585 5.26127 85.5126 5.32901 85.8522 5.46449C86.1918 5.59998 86.4829 5.78385 86.7255 6.0161C86.968 6.24836 87.1621 6.52417 87.3076 6.84352C87.4532 7.16288 87.526 7.50642 87.526 7.87417ZM82.4051 26.9484V12.4903H87.1789V26.9484H82.4051ZM106.33 19.6613C106.33 20.842 106.117 21.9113 105.69 22.8694C105.263 23.8275 104.681 24.6404 103.943 25.3081C103.206 25.9759 102.352 26.4936 101.382 26.8613C100.412 27.2291 99.3733 27.413 98.2672 27.413C97.1805 27.413 96.1471 27.2291 95.1671 26.8613C94.1872 26.4936 93.3333 25.9759 92.6056 25.3081C91.8779 24.6404 91.3006 23.8275 90.8736 22.8694C90.4467 21.9113 90.2333 20.842 90.2333 19.6613C90.2333 18.4807 90.4467 17.4162 90.8736 16.4678C91.3006 15.5194 91.8779 14.7162 92.6056 14.0581C93.3333 13.4001 94.1872 12.8968 95.1671 12.5485C96.1471 12.2001 97.1805 12.0259 98.2672 12.0259C99.3733 12.0259 100.412 12.2001 101.382 12.5485C102.352 12.8968 103.206 13.4001 103.943 14.0581C104.681 14.7162 105.263 15.5194 105.69 16.4678C106.117 17.4162 106.33 18.4807 106.33 19.6613ZM101.73 19.6614C101.73 19.1969 101.652 18.7421 101.497 18.2969C101.342 17.8517 101.119 17.4598 100.828 17.1211C100.537 16.7824 100.178 16.5066 99.7507 16.2937C99.3238 16.0808 98.8289 15.9743 98.2662 15.9743C97.7034 15.9743 97.2086 16.0808 96.7816 16.2937C96.3547 16.5066 96.0006 16.7824 95.7192 17.1211C95.4378 17.4598 95.2243 17.8517 95.0788 18.2969C94.9333 18.7421 94.8605 19.1969 94.8605 19.6614C94.8605 20.1259 94.9333 20.5808 95.0788 21.0259C95.2243 21.4711 95.4427 21.8727 95.7337 22.2308C96.0248 22.5888 96.3838 22.8743 96.8108 23.0872C97.2377 23.3001 97.7325 23.4066 98.2953 23.4066C98.858 23.4066 99.3529 23.3001 99.7798 23.0872C100.207 22.8743 100.566 22.5888 100.857 22.2308C101.148 21.8727 101.366 21.4711 101.512 21.0259C101.657 20.5808 101.73 20.1259 101.73 19.6614ZM129.91 26.9484V18.3548H121.876V26.9484H116.898V6.39355H121.876V14.1742H129.91V6.39355H134.887V26.9484H129.91ZM148.857 18.0647C148.857 17.3098 148.619 16.6615 148.144 16.1195C147.668 15.5776 146.955 15.3066 146.004 15.3066C145.538 15.3066 145.111 15.3792 144.723 15.5244C144.335 15.6695 143.996 15.8679 143.705 16.1195C143.413 16.3711 143.181 16.6663 143.006 17.005C142.831 17.3437 142.734 17.6969 142.715 18.0647H148.857ZM153.252 19.8936V20.4743C153.252 20.6678 153.242 20.8517 153.223 21.0259H142.715C142.753 21.4323 142.875 21.8001 143.078 22.1291C143.282 22.4581 143.544 22.7436 143.864 22.9855C144.185 23.2275 144.544 23.4162 144.941 23.5517C145.339 23.6872 145.752 23.7549 146.178 23.7549C146.935 23.7549 147.576 23.6146 148.1 23.3339C148.624 23.0533 149.05 22.6904 149.38 22.2452L152.699 24.3355C152.02 25.3226 151.122 26.0823 150.006 26.6146C148.89 27.1468 147.595 27.413 146.12 27.413C145.034 27.413 144.005 27.2436 143.035 26.9049C142.064 26.5662 141.215 26.0726 140.488 25.4242C139.76 24.7759 139.188 23.9775 138.77 23.0291C138.353 22.0807 138.145 20.9968 138.145 19.7775C138.145 18.5968 138.348 17.5275 138.756 16.5694C139.163 15.6113 139.716 14.7985 140.415 14.1307C141.114 13.463 141.938 12.9452 142.889 12.5775C143.84 12.2097 144.869 12.0259 145.975 12.0259C147.042 12.0259 148.022 12.2049 148.915 12.563C149.807 12.921 150.574 13.4388 151.214 14.1162C151.855 14.7936 152.354 15.6162 152.713 16.5839C153.072 17.5517 153.252 18.6549 153.252 19.8936ZM164.78 20.6483H164.169C163.645 20.6483 163.116 20.6725 162.583 20.7209C162.049 20.7693 161.573 20.8612 161.156 20.9967C160.739 21.1322 160.395 21.3306 160.123 21.5919C159.851 21.8531 159.715 22.1967 159.715 22.6225C159.715 22.8935 159.778 23.1257 159.905 23.3193C160.031 23.5128 160.191 23.6677 160.385 23.7838C160.579 23.8999 160.802 23.9822 161.054 24.0306C161.307 24.0789 161.549 24.1031 161.782 24.1031C162.752 24.1031 163.495 23.837 164.009 23.3048C164.523 22.7725 164.78 22.0515 164.78 21.1419V20.6483ZM156.019 14.4646C156.873 13.6517 157.868 13.042 159.003 12.6355C160.138 12.2291 161.298 12.0259 162.481 12.0259C163.704 12.0259 164.737 12.1759 165.582 12.4759C166.426 12.7759 167.11 13.2404 167.634 13.8694C168.158 14.4985 168.541 15.292 168.783 16.2501C169.026 17.2081 169.147 18.3452 169.147 19.6613V26.9484H164.781V25.4097H164.694C164.325 26.0097 163.767 26.4742 163.02 26.8033C162.273 27.1323 161.463 27.2968 160.589 27.2968C160.007 27.2968 159.406 27.2194 158.785 27.0646C158.164 26.9097 157.596 26.6581 157.082 26.3097C156.568 25.9613 156.146 25.4968 155.816 24.9162C155.486 24.3355 155.321 23.6194 155.321 22.7678C155.321 21.7226 155.607 20.8807 156.179 20.242C156.752 19.6033 157.489 19.1097 158.392 18.7613C159.294 18.413 160.298 18.1807 161.404 18.0646C162.511 17.9484 163.588 17.8904 164.635 17.8904V17.6581C164.635 16.942 164.383 16.4146 163.879 16.0759C163.374 15.7372 162.753 15.5678 162.016 15.5678C161.337 15.5678 160.682 15.713 160.051 16.0033C159.42 16.2936 158.882 16.642 158.435 17.0484L156.019 14.4646ZM172.757 26.9484V5H177.589V26.9484H172.757ZM186.556 16.0614V21.5775C186.556 22.2549 186.687 22.763 186.949 23.1017C187.211 23.4404 187.682 23.6097 188.361 23.6097C188.594 23.6097 188.841 23.5904 189.103 23.5517C189.365 23.513 189.584 23.4549 189.758 23.3775L189.816 26.8613C189.487 26.9775 189.069 27.0791 188.565 27.1662C188.06 27.2533 187.556 27.2968 187.051 27.2968C186.081 27.2968 185.266 27.1759 184.606 26.9339C183.946 26.692 183.417 26.3436 183.02 25.8888C182.622 25.4339 182.336 24.892 182.161 24.263C181.986 23.6339 181.899 22.9323 181.899 22.1581V16.0614H179.57V12.4904H181.87V8.68717H186.556V12.4904H189.962V16.0614H186.556ZM201.748 26.9484V19.1097C201.748 18.7032 201.719 18.3161 201.66 17.9484C201.602 17.5806 201.491 17.2564 201.326 16.9758C201.161 16.6951 200.942 16.4726 200.671 16.3081C200.399 16.1435 200.05 16.0613 199.623 16.0613C198.788 16.0613 198.148 16.3564 197.702 16.9468C197.255 17.5371 197.032 18.2677 197.032 19.1387V26.9484H192.258V5H197.032V14.3193H197.09C197.42 13.7387 197.944 13.221 198.662 12.7661C199.38 12.3113 200.244 12.0839 201.253 12.0839C202.242 12.0839 203.072 12.2581 203.742 12.6064C204.411 12.9548 204.954 13.4048 205.372 13.9564C205.789 14.5081 206.09 15.1419 206.274 15.8581C206.458 16.5742 206.551 17.2903 206.551 18.0064V26.9484H201.748Z" fill="#ffffff"/>
</svg>
