<svg width="207" height="30" viewBox="0 0 207 30" fill="none" xmlns="http://www.w3.org/2000/svg">
<path fill-rule="evenodd" clip-rule="evenodd" d="M37.4978 7.53124C38.0924 7.53124 38.6696 7.60312 39.2249 7.73492C39.2755 7.73558 39.3227 7.73625 39.3619 7.73625V6.51684H25.1853C24.8966 6.93485 24.6286 7.36816 24.3826 7.81546H35.4628C36.1092 7.63175 36.7916 7.53124 37.4978 7.53124ZM17.2679 22.1682C17.1775 22.1968 17.0538 22.2181 16.9068 22.2361C16.2936 22.3985 15.6492 22.4864 14.9848 22.4864C14.3431 22.4864 13.7199 22.4058 13.1247 22.2534C13.1074 22.2534 13.0868 22.2527 13.0715 22.2527L12.9099 23.4675H27.4178C27.7037 23.0482 27.9711 22.6162 28.2145 22.1682H17.2679ZM21.7893 18.2723H29.6694C29.7645 17.8463 29.841 17.4137 29.8981 16.9737H22.2748C22.1524 17.4256 21.9895 17.8603 21.7893 18.2723ZM22.9051 11.7107C22.8086 12.1381 22.7308 12.5707 22.6716 13.01H30.303C30.428 12.5581 30.5943 12.1241 30.7978 11.7107H22.9051ZM31.4332 1.32239C30.6145 1.68781 29.8338 2.12113 29.1002 2.62034H37.5256V1.32239H31.4332ZM27.4475 3.91967C27.0006 4.3257 26.5816 4.76101 26.1873 5.21829H37.5202V3.91967H27.4475ZM23.534 27.3633H15.0427V28.662H21.2382C22.0443 28.2952 22.8124 27.8612 23.534 27.3633ZM23.7498 9.11414C23.5682 9.5368 23.4073 9.97012 23.2643 10.4128H31.6205C31.9983 9.92818 32.4345 9.49221 32.918 9.11414H23.7498ZM20.9873 19.5717C20.6162 20.0542 20.1873 20.4902 19.7118 20.8703H28.8421C29.0217 20.4469 29.1806 20.0136 29.3223 19.5717H20.9873ZM26.4181 24.7659C26.0264 25.2232 25.6087 25.6579 25.1658 26.0645H15.0439L14.5471 24.7659H26.4181Z" fill="#4CE1C6"/>
<path fill-rule="evenodd" clip-rule="evenodd" d="M37.4963 0C35.4945 0 33.5852 0.393379 31.8401 1.10625C35.0117 2.39955 37.642 4.74784 39.2932 7.71849C42.5633 8.52455 44.9893 11.4779 44.9893 15.0003C44.9893 19.1418 41.6349 22.5005 37.4963 22.5005C33.3578 22.5005 30.0026 19.1418 30.0026 15.0003H29.9734C29.9734 6.71607 23.2638 0 14.9874 0C6.71026 0 0 6.71607 0 15.0003C0 23.2846 6.71026 30 14.9874 30C16.9692 30 18.8599 29.6133 20.5923 28.9144C17.3861 27.6204 14.73 25.2522 13.0707 22.2529C9.86055 21.4042 7.49301 18.4802 7.49301 15.0003C7.49301 10.8582 10.8481 7.4995 14.9874 7.4995C19.1252 7.4995 22.4804 10.8582 22.4804 15.0003H22.5096C22.5096 23.2846 29.2199 30 37.4963 30C45.7727 30 52.483 23.2846 52.483 15.0003C52.483 6.71607 45.7727 0 37.4963 0" fill="#4CE1C6"/>
<path fill-rule="evenodd" clip-rule="evenodd" d="M78.4735 19.9229C78.4735 20.7358 78.3814 21.5874 78.197 22.4778C78.0127 23.3681 77.6731 24.1858 77.1782 24.931C76.6834 25.6762 75.9945 26.2907 75.1115 26.7745C74.2286 27.2584 73.0885 27.5003 71.6913 27.5003C69.9448 27.5003 68.4894 27.0504 67.325 26.1504C66.1607 25.2503 65.3845 24.0939 64.9963 22.681L69.3917 21.2004C69.5276 21.7423 69.775 22.1778 70.134 22.5068C70.493 22.8358 70.9345 23.0004 71.4584 23.0004C72.2734 23.0004 72.8119 22.7197 73.0739 22.1584C73.3359 21.5971 73.4669 20.8617 73.4669 19.952V6.39392H78.4735V19.9229ZM87.5262 7.87437C87.5262 8.24211 87.4534 8.58565 87.3079 8.90501C87.1624 9.22436 86.9683 9.50017 86.7257 9.73243C86.4832 9.96469 86.1921 10.1486 85.8525 10.284C85.5129 10.4195 85.1587 10.4873 84.79 10.4873C84.0138 10.4873 83.3637 10.2308 82.8398 9.71791C82.3158 9.20501 82.0538 8.5905 82.0538 7.87437C82.0538 7.52598 82.1218 7.19211 82.2576 6.87275C82.3934 6.5534 82.5875 6.27759 82.8398 6.04533C83.092 5.81308 83.3831 5.62437 83.713 5.47921C84.0429 5.33404 84.4019 5.26147 84.79 5.26147C85.1587 5.26147 85.5129 5.32921 85.8525 5.46469C86.1921 5.60017 86.4832 5.78404 86.7257 6.0163C86.9683 6.24856 87.1624 6.52437 87.3079 6.84372C87.4534 7.16308 87.5262 7.50662 87.5262 7.87437ZM82.4054 26.9485V12.4905H87.1792V26.9485H82.4054ZM106.33 19.6616C106.33 20.8422 106.117 21.9116 105.69 22.8697C105.263 23.8277 104.681 24.6406 103.944 25.3084C103.206 25.9761 102.352 26.4938 101.382 26.8616C100.412 27.2293 99.3736 27.4132 98.2674 27.4132C97.1807 27.4132 96.1474 27.2293 95.1674 26.8616C94.1874 26.4938 93.3336 25.9761 92.6059 25.3084C91.8781 24.6406 91.3008 23.8277 90.8739 22.8697C90.447 21.9116 90.2335 20.8422 90.2335 19.6616C90.2335 18.4809 90.447 17.4164 90.8739 16.468C91.3008 15.5197 91.8781 14.7164 92.6059 14.0584C93.3336 13.4003 94.1874 12.8971 95.1674 12.5487C96.1474 12.2003 97.1807 12.0261 98.2674 12.0261C99.3736 12.0261 100.412 12.2003 101.382 12.5487C102.352 12.8971 103.206 13.4003 103.944 14.0584C104.681 14.7164 105.263 15.5197 105.69 16.468C106.117 17.4164 106.33 18.4809 106.33 19.6616ZM101.73 19.6614C101.73 19.1969 101.653 18.7421 101.497 18.2969C101.342 17.8518 101.119 17.4598 100.828 17.1211C100.537 16.7824 100.178 16.5066 99.7509 16.2937C99.324 16.0808 98.8292 15.9744 98.2664 15.9744C97.7036 15.9744 97.2088 16.0808 96.7819 16.2937C96.3549 16.5066 96.0008 16.7824 95.7194 17.1211C95.438 17.4598 95.2246 17.8518 95.079 18.2969C94.9335 18.7421 94.8607 19.1969 94.8607 19.6614C94.8607 20.126 94.9335 20.5808 95.079 21.026C95.2246 21.4711 95.4429 21.8727 95.734 22.2308C96.0251 22.5889 96.3841 22.8743 96.811 23.0873C97.2379 23.3002 97.7327 23.4066 98.2955 23.4066C98.8583 23.4066 99.3531 23.3002 99.78 23.0873C100.207 22.8743 100.566 22.5889 100.857 22.2308C101.148 21.8727 101.366 21.4711 101.512 21.026C101.658 20.5808 101.73 20.126 101.73 19.6614ZM129.91 26.9485V18.355H121.876V26.9485H116.899V6.39368H121.876V14.1743H129.91V6.39368H134.888V26.9485H129.91ZM148.857 18.0648C148.857 17.31 148.619 16.6616 148.144 16.1197C147.668 15.5777 146.955 15.3068 146.004 15.3068C145.539 15.3068 145.112 15.3793 144.724 15.5245C144.335 15.6697 143.996 15.8681 143.705 16.1197C143.414 16.3713 143.181 16.6664 143.006 17.0051C142.832 17.3439 142.734 17.6971 142.715 18.0648H148.857ZM153.252 19.8937V20.4744C153.252 20.6679 153.242 20.8518 153.223 21.026H142.715C142.754 21.4324 142.875 21.8002 143.079 22.1292C143.282 22.4583 143.544 22.7437 143.865 22.9857C144.185 23.2276 144.544 23.4163 144.942 23.5518C145.339 23.6873 145.752 23.755 146.179 23.755C146.936 23.755 147.576 23.6147 148.1 23.3341C148.624 23.0534 149.051 22.6905 149.381 22.2453L152.699 24.3357C152.02 25.3228 151.122 26.0824 150.006 26.6147C148.891 27.147 147.595 27.4131 146.12 27.4131C145.034 27.4131 144.005 27.2437 143.035 26.905C142.065 26.5663 141.216 26.0728 140.488 25.4244C139.76 24.776 139.188 23.9776 138.771 23.0292C138.353 22.0808 138.145 20.997 138.145 19.7776C138.145 18.597 138.349 17.5276 138.756 16.5695C139.164 15.6115 139.717 14.7986 140.415 14.1308C141.114 13.4631 141.939 12.9454 142.889 12.5776C143.84 12.2099 144.869 12.026 145.975 12.026C147.042 12.026 148.022 12.205 148.915 12.5631C149.808 12.9212 150.574 13.4389 151.214 14.1163C151.855 14.7937 152.355 15.6163 152.714 16.5841C153.073 17.5518 153.252 18.655 153.252 19.8937ZM164.78 20.6483H164.169C163.645 20.6483 163.116 20.6725 162.583 20.7209C162.049 20.7693 161.574 20.8612 161.156 20.9967C160.739 21.1322 160.395 21.3306 160.123 21.5919C159.851 21.8532 159.716 22.1967 159.716 22.6225C159.716 22.8935 159.779 23.1257 159.905 23.3193C160.031 23.5128 160.191 23.6677 160.385 23.7838C160.579 23.8999 160.802 23.9822 161.055 24.0306C161.307 24.079 161.549 24.1032 161.782 24.1032C162.753 24.1032 163.495 23.837 164.009 23.3048C164.523 22.7725 164.78 22.0515 164.78 21.1419V20.6483ZM156.02 14.4647C156.873 13.6518 157.868 13.0421 159.003 12.6357C160.138 12.2292 161.298 12.026 162.482 12.026C163.704 12.026 164.738 12.176 165.582 12.476C166.426 12.776 167.11 13.2405 167.634 13.8695C168.158 14.4986 168.541 15.2921 168.784 16.2502C169.026 17.2083 169.148 18.3453 169.148 19.6615V26.9486H164.781V25.4099H164.694C164.325 26.0099 163.767 26.4744 163.02 26.8034C162.273 27.1324 161.463 27.297 160.59 27.297C160.007 27.297 159.406 27.2195 158.785 27.0647C158.164 26.9099 157.596 26.6582 157.082 26.3099C156.568 25.9615 156.146 25.497 155.816 24.9163C155.486 24.3357 155.321 23.6195 155.321 22.7679C155.321 21.7228 155.607 20.8808 156.18 20.2421C156.752 19.6034 157.49 19.1099 158.392 18.7615C159.294 18.4131 160.299 18.1808 161.405 18.0647C162.511 17.9486 163.588 17.8905 164.636 17.8905V17.6583C164.636 16.9421 164.383 16.4147 163.879 16.076C163.374 15.7373 162.753 15.5679 162.016 15.5679C161.337 15.5679 160.682 15.7131 160.051 16.0034C159.42 16.2937 158.882 16.6421 158.436 17.0486L156.02 14.4647ZM172.757 26.9486V5.00023H177.589V26.9486H172.757ZM186.557 16.0616V21.5777C186.557 22.2551 186.688 22.7632 186.95 23.1019C187.212 23.4406 187.682 23.6099 188.361 23.6099C188.594 23.6099 188.842 23.5906 189.104 23.5519C189.366 23.5132 189.584 23.4551 189.759 23.3777L189.817 26.8616C189.487 26.9777 189.07 27.0793 188.565 27.1664C188.061 27.2535 187.556 27.297 187.051 27.297C186.081 27.297 185.266 27.1761 184.606 26.9341C183.947 26.6922 183.418 26.3438 183.02 25.889C182.622 25.4341 182.336 24.8922 182.161 24.2632C181.987 23.6341 181.899 22.9325 181.899 22.1583V16.0616H179.571V12.4906H181.87V8.68738H186.557V12.4906H189.962V16.0616H186.557ZM201.748 26.9485V19.1098C201.748 18.7033 201.719 18.3162 201.661 17.9485C201.602 17.5808 201.491 17.2566 201.326 16.9759C201.161 16.6953 200.943 16.4727 200.671 16.3082C200.399 16.1437 200.05 16.0614 199.623 16.0614C198.789 16.0614 198.148 16.3566 197.702 16.9469C197.255 17.5372 197.032 18.2678 197.032 19.1388V26.9485H192.259V5.00012H197.032V14.3195H197.091C197.42 13.7388 197.944 13.2211 198.662 12.7662C199.38 12.3114 200.244 12.084 201.253 12.084C202.243 12.084 203.072 12.2582 203.742 12.6066C204.411 12.955 204.955 13.4049 205.372 13.9566C205.789 14.5082 206.09 15.142 206.274 15.8582C206.459 16.5743 206.551 17.2904 206.551 18.0066V26.9485H201.748Z" fill="#4CE1C6"/>
</svg>
