<svg width="121" height="122" viewBox="0 0 121 122" fill="none" xmlns="http://www.w3.org/2000/svg">
<circle cx="60" cy="60.9912" r="59" fill="url(#paint0_linear)"/>
<g filter="url(#filter0_d)">
<path d="M84.7581 43.8517C76.1701 29.0164 57.2963 23.114 42.6042 30.6669C27.9103 38.2207 22.9618 56.3698 31.5498 71.205C40.1377 86.0403 59.0098 91.9436 73.7037 84.3898C75.3603 83.5382 76.8794 82.5377 78.2833 81.4365C78.3553 81.38 78.449 81.3547 78.5423 81.3671L94.117 83.4296C94.3903 83.4658 94.5861 83.192 94.4523 82.9608L86.9853 70.0619C86.9371 69.9786 86.9296 69.8799 86.9644 69.7919C90.131 61.7734 89.6381 52.2818 84.7581 43.8517Z" fill="white"/>
</g>
<rect width="40.1698" height="5.02122" rx="2.51061" transform="matrix(-0.874376 0.485249 0.485242 0.87438 71.8459 40.6436)" fill="#4CE1C6"/>
<rect width="25.1061" height="5.02122" rx="2.51061" transform="matrix(-0.874373 0.485254 0.485236 0.874383 71.3517 55.2742)" fill="#4CE1C6"/>
<defs>
<filter id="filter0_d" x="18.7863" y="20.5416" width="87.6752" height="80.8118" filterUnits="userSpaceOnUse" color-interpolation-filters="sRGB">
<feFlood flood-opacity="0" result="BackgroundImageFix"/>
<feColorMatrix in="SourceAlpha" type="matrix" values="0 0 0 0 0 0 0 0 0 0 0 0 0 0 0 0 0 0 127 0"/>
<feOffset dx="1.70944" dy="3.41889"/>
<feGaussianBlur stdDeviation="5.12833"/>
<feColorMatrix type="matrix" values="0 0 0 0 0.79947 0 0 0 0 0.838085 0 0 0 0 0.938865 0 0 0 1 0"/>
<feBlend mode="normal" in2="BackgroundImageFix" result="effect1_dropShadow"/>
<feBlend mode="normal" in="SourceGraphic" in2="effect1_dropShadow" result="shape"/>
</filter>
<linearGradient id="paint0_linear" x1="-18.2093" y1="20.5145" x2="157.419" y2="89.1191" gradientUnits="userSpaceOnUse">
<stop stop-color="#D4EFFF"/>
<stop offset="1" stop-color="#D4E0FF" stop-opacity="0"/>
</linearGradient>
</defs>
</svg>
