<svg width="1440" height="900" viewBox="0 0 1440 900" fill="none" xmlns="http://www.w3.org/2000/svg">
<mask id="mask0_2_5" style="mask-type:alpha" maskUnits="userSpaceOnUse" x="0" y="0" width="1440" height="900">
<path d="M1440 0H0V899.156H1440V0Z" fill="#D9D9D9"/>
</mask>
<g mask="url(#mask0_2_5)">
<g opacity="0.7" filter="url(#filter0_f_2_5)">
<path d="M720 1294.41C1087.27 1294.41 1385 1075.7 1385 805.904C1385 536.11 1087.27 317.399 720 317.399C352.731 317.399 55 536.11 55 805.904C55 1075.7 352.731 1294.41 720 1294.41Z" fill="url(#paint0_linear_2_5)"/>
</g>
<g filter="url(#filter1_f_2_5)">
<path d="M735.5 1184.9C1172.63 1184.9 1527 924.631 1527 603.572C1527 282.513 1172.63 22.2437 735.5 22.2437C298.367 22.2437 -56 282.513 -56 603.572C-56 924.631 298.367 1184.9 735.5 1184.9Z" fill="url(#paint1_linear_2_5)"/>
</g>
<g opacity="0.5" filter="url(#filter2_d_2_5)">
<path d="M144 562.079C259.98 562.079 354 476.324 354 370.54C354 264.755 259.98 179 144 179C28.0202 179 -66 264.755 -66 370.54C-66 476.324 28.0202 562.079 144 562.079Z" fill="url(#paint2_linear_2_5)"/>
</g>
<g opacity="0.8" filter="url(#filter3_d_2_5)">
<path d="M1294 775.105C1456.37 775.105 1588 653.079 1588 502.552C1588 352.026 1456.37 230 1294 230C1131.63 230 1000 352.026 1000 502.552C1000 653.079 1131.63 775.105 1294 775.105Z" fill="url(#paint3_linear_2_5)"/>
</g>
<g opacity="0.4" filter="url(#filter4_d_2_5)">
<path d="M927 892.312C983.885 892.312 1030 848.142 1030 793.656C1030 739.17 983.885 695 927 695C870.115 695 824 739.17 824 793.656C824 848.142 870.115 892.312 927 892.312Z" fill="url(#paint4_linear_2_5)"/>
</g>
<g filter="url(#filter5_d_2_5)">
<path d="M1006 826.441C1206.58 790.057 1337 756.852 1442 786.625V1685.78C1227.6 1644.58 1034 1680.65 936 1690.92C619.256 1724.1 448 1685.78 336 1669.13C145.6 1640.8 31 1673.05 -11 1681.1V860.024C73 819.793 132 811.948 402 835.283C663.116 857.851 702 881.583 1006 826.441Z" fill="white"/>
</g>
<g opacity="0.8" filter="url(#filter6_d_2_5)">
<path d="M1306.5 893.167C1349.85 893.167 1385 857.984 1385 814.584C1385 771.183 1349.85 736 1306.5 736C1263.15 736 1228 771.183 1228 814.584C1228 857.984 1263.15 893.167 1306.5 893.167Z" fill="url(#paint5_linear_2_5)"/>
</g>
</g>
<defs>
<filter id="filter0_f_2_5" x="-45" y="217.399" width="1530" height="1177.01" filterUnits="userSpaceOnUse" color-interpolation-filters="sRGB">
<feFlood flood-opacity="0" result="BackgroundImageFix"/>
<feBlend mode="normal" in="SourceGraphic" in2="BackgroundImageFix" result="shape"/>
<feGaussianBlur stdDeviation="50" result="effect1_foregroundBlur_2_5"/>
</filter>
<filter id="filter1_f_2_5" x="-156" y="-77.7563" width="1783" height="1362.66" filterUnits="userSpaceOnUse" color-interpolation-filters="sRGB">
<feFlood flood-opacity="0" result="BackgroundImageFix"/>
<feBlend mode="normal" in="SourceGraphic" in2="BackgroundImageFix" result="shape"/>
<feGaussianBlur stdDeviation="50" result="effect1_foregroundBlur_2_5"/>
</filter>
<filter id="filter2_d_2_5" x="-151.263" y="122.158" width="533.684" height="496.764" filterUnits="userSpaceOnUse" color-interpolation-filters="sRGB">
<feFlood flood-opacity="0" result="BackgroundImageFix"/>
<feColorMatrix in="SourceAlpha" type="matrix" values="0 0 0 0 0 0 0 0 0 0 0 0 0 0 0 0 0 0 127 0" result="hardAlpha"/>
<feOffset dx="-28.4211"/>
<feGaussianBlur stdDeviation="28.4211"/>
<feColorMatrix type="matrix" values="0 0 0 0 0.7125 0 0 0 0 0.846094 0 0 0 0 0.95 0 0 0 1 0"/>
<feBlend mode="normal" in2="BackgroundImageFix" result="effect1_dropShadow_2_5"/>
<feBlend mode="normal" in="SourceGraphic" in2="effect1_dropShadow_2_5" result="shape"/>
</filter>
<filter id="filter3_d_2_5" x="914.737" y="173.158" width="701.684" height="658.789" filterUnits="userSpaceOnUse" color-interpolation-filters="sRGB">
<feFlood flood-opacity="0" result="BackgroundImageFix"/>
<feColorMatrix in="SourceAlpha" type="matrix" values="0 0 0 0 0 0 0 0 0 0 0 0 0 0 0 0 0 0 127 0" result="hardAlpha"/>
<feOffset dx="-28.4211"/>
<feGaussianBlur stdDeviation="28.4211"/>
<feColorMatrix type="matrix" values="0 0 0 0 0.7125 0 0 0 0 0.846094 0 0 0 0 0.95 0 0 0 1 0"/>
<feBlend mode="normal" in2="BackgroundImageFix" result="effect1_dropShadow_2_5"/>
<feBlend mode="normal" in="SourceGraphic" in2="effect1_dropShadow_2_5" result="shape"/>
</filter>
<filter id="filter4_d_2_5" x="738.737" y="638.158" width="319.684" height="310.996" filterUnits="userSpaceOnUse" color-interpolation-filters="sRGB">
<feFlood flood-opacity="0" result="BackgroundImageFix"/>
<feColorMatrix in="SourceAlpha" type="matrix" values="0 0 0 0 0 0 0 0 0 0 0 0 0 0 0 0 0 0 127 0" result="hardAlpha"/>
<feOffset dx="-28.4211"/>
<feGaussianBlur stdDeviation="28.4211"/>
<feColorMatrix type="matrix" values="0 0 0 0 0.7125 0 0 0 0 0.846094 0 0 0 0 0.95 0 0 0 1 0"/>
<feBlend mode="normal" in2="BackgroundImageFix" result="effect1_dropShadow_2_5"/>
<feBlend mode="normal" in="SourceGraphic" in2="effect1_dropShadow_2_5" result="shape"/>
</filter>
<filter id="filter5_d_2_5" x="-51" y="705.105" width="1613" height="1088.92" filterUnits="userSpaceOnUse" color-interpolation-filters="sRGB">
<feFlood flood-opacity="0" result="BackgroundImageFix"/>
<feColorMatrix in="SourceAlpha" type="matrix" values="0 0 0 0 0 0 0 0 0 0 0 0 0 0 0 0 0 0 127 0" result="hardAlpha"/>
<feOffset dx="40" dy="10"/>
<feGaussianBlur stdDeviation="40"/>
<feColorMatrix type="matrix" values="0 0 0 0 0.641667 0 0 0 0 0.849638 0 0 0 0 0.875 0 0 0 1 0"/>
<feBlend mode="normal" in2="BackgroundImageFix" result="effect1_dropShadow_2_5"/>
<feBlend mode="normal" in="SourceGraphic" in2="effect1_dropShadow_2_5" result="shape"/>
</filter>
<filter id="filter6_d_2_5" x="1213" y="726" width="177" height="177.167" filterUnits="userSpaceOnUse" color-interpolation-filters="sRGB">
<feFlood flood-opacity="0" result="BackgroundImageFix"/>
<feColorMatrix in="SourceAlpha" type="matrix" values="0 0 0 0 0 0 0 0 0 0 0 0 0 0 0 0 0 0 127 0" result="hardAlpha"/>
<feOffset dx="-5"/>
<feGaussianBlur stdDeviation="5"/>
<feColorMatrix type="matrix" values="0 0 0 0 0.7125 0 0 0 0 0.846094 0 0 0 0 0.95 0 0 0 1 0"/>
<feBlend mode="normal" in2="BackgroundImageFix" result="effect1_dropShadow_2_5"/>
<feBlend mode="normal" in="SourceGraphic" in2="effect1_dropShadow_2_5" result="shape"/>
</filter>
<linearGradient id="paint0_linear_2_5" x1="265.392" y1="359.444" x2="255.555" y2="1100.69" gradientUnits="userSpaceOnUse">
<stop offset="0.0121435" stop-color="#FFC7A8" stop-opacity="0.19"/>
<stop offset="0.492135" stop-color="#5BBAFF" stop-opacity="0.355023"/>
<stop offset="1" stop-color="white" stop-opacity="0"/>
</linearGradient>
<linearGradient id="paint1_linear_2_5" x1="194.413" y1="72.2773" x2="182.71" y2="954.368" gradientUnits="userSpaceOnUse">
<stop offset="0.0121435" stop-color="#FFC7A8" stop-opacity="0.19"/>
<stop offset="0.492135" stop-color="#5BBAFF" stop-opacity="0.355023"/>
<stop offset="1" stop-color="white" stop-opacity="0"/>
</linearGradient>
<linearGradient id="paint2_linear_2_5" x1="-114.932" y1="249.665" x2="255.024" y2="507.399" gradientUnits="userSpaceOnUse">
<stop stop-color="white"/>
<stop offset="1" stop-color="#C0E3FD"/>
</linearGradient>
<linearGradient id="paint3_linear_2_5" x1="931.495" y1="330.553" x2="1454.9" y2="689.31" gradientUnits="userSpaceOnUse">
<stop stop-color="white"/>
<stop offset="1" stop-color="#C0E3FD"/>
</linearGradient>
<linearGradient id="paint4_linear_2_5" x1="800" y1="731.397" x2="987.155" y2="855.555" gradientUnits="userSpaceOnUse">
<stop stop-color="white"/>
<stop offset="1" stop-color="#C0E3FD"/>
</linearGradient>
<linearGradient id="paint5_linear_2_5" x1="1209.71" y1="764.992" x2="1356.13" y2="857.929" gradientUnits="userSpaceOnUse">
<stop stop-color="white"/>
<stop offset="1" stop-color="#C0E3FD"/>
</linearGradient>
</defs>
</svg>
