<svg width="30" height="34" viewBox="0 0 30 34" fill="none" xmlns="http://www.w3.org/2000/svg">
<path fill-rule="evenodd" clip-rule="evenodd" d="M7.75844 15.9761L1.3366 19.4546C0.142975 20.1011 -0.335338 21.5691 0.248291 22.7948C0.764589 23.879 1.96711 24.4564 3.13607 24.1813L7.6813 23.1119L6.91091 27.5416C6.91091 27.5416 9.60728 30.8157 15 30.8157C20.3927 30.8157 23.0876 27.5416 23.0876 27.5416L22.3187 23.1119L26.8639 24.1813C28.0329 24.4564 29.2354 23.879 29.7517 22.7948C30.3353 21.5691 29.857 20.1011 28.6634 19.4546L22.2438 15.9773C20.4788 17.9895 17.8886 19.2599 15.0017 19.2599C12.1141 19.2599 9.52346 17.989 7.75844 15.9761Z" fill="#E7C2A7"/>
<ellipse cx="15" cy="25.0379" rx="3.46675" ry="4.23714" fill="#E9CEBA"/>
<ellipse cx="19.623" cy="28.5042" rx="3.46675" ry="4.62233" transform="rotate(15 19.623 28.5042)" fill="#C79978"/>
<ellipse cx="10.376" cy="28.5046" rx="3.46675" ry="4.62233" transform="rotate(-15 10.376 28.5046)" fill="#C79978"/>
<path fill-rule="evenodd" clip-rule="evenodd" d="M5.36914 4.33344C5.36914 5.75703 6.0556 7.0203 7.11557 7.81027C6.98115 8.39509 6.91013 9.00411 6.91013 9.62972C6.91013 14.0972 10.5317 17.7188 14.9992 17.7188C19.4667 17.7188 23.0883 14.0972 23.0883 9.62972C23.0883 9.00405 23.0173 8.39497 22.8828 7.8101C23.9427 7.02011 24.629 5.75693 24.629 4.33344C24.629 1.94015 22.6889 0 20.2956 0C18.8721 0 17.609 0.686341 16.819 1.74615C16.2341 1.61169 15.6249 1.54064 14.9992 1.54064C14.3734 1.54064 13.7642 1.6117 13.1792 1.7462C12.3893 0.686363 11.1261 0 9.70258 0C7.30929 0 5.36914 1.94015 5.36914 4.33344Z" fill="#E7C2A7"/>
<ellipse cx="17.888" cy="7.89646" rx="1.15558" ry="1.73338" fill="#4A4A4A"/>
<ellipse cx="12.1107" cy="7.89646" rx="1.15558" ry="1.73338" fill="#4A4A4A"/>
<ellipse cx="14.9998" cy="11.7482" rx="4.23714" ry="4.04454" fill="#E9CEBA"/>
<circle cx="14.7005" cy="9.96076" r="1.15558" fill="#C79978"/>
</svg>
