<svg width="20" height="20" viewBox="0 0 20 20" fill="none" xmlns="http://www.w3.org/2000/svg">
<g clip-path="url(#clip0)">
<path d="M13.7621 12.8824L7.11644 6.23672C6.87319 5.99348 6.47886 5.99348 6.23562 6.23672L1.55628 10.9161C-0.51876 12.9911 -0.51876 16.3675 1.55628 18.4425C3.63132 20.5176 7.00769 20.5176 9.08276 18.4425L13.7621 13.7632C14.0053 13.52 14.0053 13.1256 13.7621 12.8824Z" fill="#8DADFF"/>
<path d="M19.9987 5.32065C19.9988 3.89897 19.4453 2.56249 18.4401 1.55741C16.3651 -0.517631 12.9887 -0.517631 10.9137 1.55741L6.23438 6.23671L13.7609 13.7632L18.4402 9.08389C19.4452 8.07882 19.9988 6.74229 19.9987 5.32065Z" fill="#70E3CE"/>
<path d="M13.7644 12.8824L10.4416 9.55954L1.55859 18.4425C3.63363 20.5175 7.01 20.5175 9.08508 18.4425L13.7644 13.7632C14.0076 13.52 14.0076 13.1256 13.7644 12.8824Z" fill="#567FEA"/>
<path d="M13.7632 13.7632L18.4426 9.08387C19.4477 8.07879 20.0012 6.74231 20.0012 5.32063C20.0012 3.89895 19.4477 2.56247 18.4426 1.55739L10 9.99997L13.7632 13.7632Z" fill="#5AD3C0"/>
</g>
<defs>
<clipPath id="clip0">
<rect width="20" height="20" fill="white"/>
</clipPath>
</defs>
</svg>
