<svg width="31" height="34" viewBox="0 0 31 34" fill="none" xmlns="http://www.w3.org/2000/svg">
<path d="M24.3464 3.40694C24.106 3.1821 23.5921 3.29805 23.1987 3.66593C22.8053 4.03381 22.6813 4.5143 22.9217 4.73914L26.4048 7.99604C26.6453 8.22088 27.1592 8.10493 27.5526 7.73705C27.946 7.36918 28.07 6.88868 27.8296 6.66384L24.3464 3.40694Z" fill="#567FEA"/>
<path d="M22.9204 3.40747L19.4356 6.66593C19.195 6.89088 19.3189 7.37146 19.7124 7.73934C20.1058 8.10721 20.6198 8.22308 20.8603 7.99813L24.3452 4.73967C24.5857 4.51472 24.4618 4.03414 24.0684 3.66626C23.675 3.29839 23.161 3.18252 22.9204 3.40747Z" fill="#567FEA"/>
<path d="M22.7511 4.89331L22.7492 12.2151C22.7491 12.552 23.1967 12.8251 23.749 12.825C24.3013 12.8248 24.7491 12.5516 24.7492 12.2146L24.7511 4.89286C24.7511 4.55589 24.3035 4.28282 23.7512 4.28294C23.1989 4.28307 22.7512 4.55634 22.7511 4.89331Z" fill="#567FEA"/>
<path d="M22.9734 24.8525C26.5227 24.8525 29.4 22.1622 29.4 18.8435C29.4 15.5248 26.5227 12.8345 22.9734 12.8345C19.4241 12.8345 16.5469 15.5248 16.5469 18.8435C16.5469 22.1622 19.4241 24.8525 22.9734 24.8525Z" stroke="#567FEA" stroke-width="2"/>
<path d="M7.42654 26.3657C10.9758 26.3657 13.8531 23.6755 13.8531 20.3569C13.8531 17.0384 10.9758 14.3481 7.42654 14.3481C3.87726 14.3481 1 17.0384 1 20.3569C1 23.6755 3.87726 26.3657 7.42654 26.3657Z" stroke="#F77997" stroke-width="2"/>
<path d="M8 26.5366C8 26.1173 7.55228 25.7773 7 25.7773C6.44772 25.7773 6 26.1173 6 26.5366V32.6108C6 33.0302 6.44772 33.3701 7 33.3701C7.55228 33.3701 8 33.0302 8 32.6108V26.5366Z" fill="#F77997"/>
<path d="M10 28.5088H4C3.44772 28.5088 3 28.9337 3 29.4578C3 29.9819 3.44772 30.4067 4 30.4067H10C10.5523 30.4067 11 29.9819 11 29.4578C11 28.9337 10.5523 28.5088 10 28.5088Z" fill="#F77997"/>
</svg>
