<svg width="30" height="29" viewBox="0 0 30 29" fill="none" xmlns="http://www.w3.org/2000/svg">
<path d="M24.6787 21.4075L19.89 20.271L19.6137 19.2211C22.9174 18.6932 24.6174 17.7536 24.6924 17.7121C24.8699 17.6136 24.9799 17.4345 24.9949 17.2399C25.0087 17.0453 24.9174 16.8544 24.7562 16.7321C24.7337 16.7156 22.5 14.9645 22.5 8.89755C22.5 3.78085 21.2387 1.18632 18.75 1.18632H18.3812C17.4837 0.36302 16.81 0 15 0C12.6512 0 7.49999 2.24102 7.49999 8.89755C7.49999 14.9645 5.26622 16.7156 5.24999 16.7274C5.08376 16.846 4.99001 17.0346 4.99997 17.2316C5.01122 17.4297 5.12372 17.6077 5.30249 17.7097C5.37749 17.7524 7.06124 18.6967 10.385 19.2234L10.1087 20.271L5.32001 21.4075C2.18748 22.1513 0 24.8111 0 27.879C0 28.2064 0.280019 28.4722 0.625018 28.4722H29.375C29.72 28.4722 30 28.2041 30 27.8766C29.9999 24.8111 27.8125 22.1513 24.6787 21.4075Z" fill="#DCE5F1"/>
<rect x="23.0332" width="2.93323" height="10.4395" rx="1" fill="#567FEA"/>
<rect x="19" y="6.61182" width="2.78467" height="11" rx="1" transform="rotate(-90 19 6.61182)" fill="#567FEA"/>
</svg>
